/* XPM */
static char *result[] = {
/* columns rows colors chars-per-pixel */
"64 64 87 1 ",
"  c #9A7200",
". c #9E7C12",
"X c #A57A00",
"o c #A9840E",
"O c #B78700",
"+ c #B98900",
"@ c #A78814",
"# c #A98911",
"$ c #A68618",
"% c #BDA130",
"& c #C69300",
"* c #C99500",
"= c #CE9A00",
"- c #D39D00",
"; c #D6A101",
": c #DBA400",
"> c #DEA800",
", c #E1A700",
"< c #E2AB00",
"1 c #F4BC00",
"2 c #C2A43C",
"3 c #FEC600",
"4 c #FFCE00",
"5 c #CCB15F",
"6 c #D3B463",
"7 c #D8B762",
"8 c #D9BD6B",
"9 c #CCAE76",
"0 c #C7AE7B",
"q c #CCB37D",
"w c #D4BD76",
"e c #D4B57C",
"r c #D8B77D",
"t c #D6B87E",
"y c #DCBB7F",
"u c #E1BD7E",
"i c #DDC16E",
"p c #D2B780",
"a c #D5BC83",
"s c #DCBD82",
"d c #D7BF88",
"f c #E1BE82",
"g c #E8BD86",
"h c #EDBF8A",
"j c #DDC185",
"k c #D4C48A",
"l c #DDC48A",
"z c #DEC98D",
"x c #DACB90",
"c c #DED191",
"v c #DFD894",
"b c #E3C385",
"n c #E9C686",
"m c #E6C987",
"M c #EBC887",
"N c #E4C689",
"B c #E9C689",
"V c #E6C98C",
"C c #EBCC8C",
"Z c #F1C984",
"A c #F1CE8C",
"S c #ECD280",
"D c #EDD08E",
"F c #F2D18F",
"G c #E5CD91",
"H c #EBCE91",
"J c #ECC798",
"K c #F1CF90",
"L c #E5D294",
"P c #EDD293",
"I c #EDD996",
"U c #EDD598",
"Y c #EEDA9A",
"T c #F3D392",
"R c #F8D693",
"E c #F5D996",
"W c #F9D996",
"Q c #F1D698",
"! c #F4DB9A",
"~ c #F9DC9B",
"^ c #F5E19E",
"/ c #EFD8A2",
"( c #F4DDA2",
") c #F3E1A4",
"_ c #F3E4AE",
"` c #FCE1AC",
"' c #F7EAA8",
/* pixels */
"PVHHPVGNfMMCCTARFNNsfNbNPRTGlNCF!!RFCVmHHHCNNVNHQKHVCMCCPPPbnnAH",
"CVHCHPVTVbfnKR~RTCNflpsbTTKVCCCNVU!CnbVVVbNNNMbCKTHCAPDMHYAbyuCH",
"FFTCVPMAPNsNDRWRRFFCVjsNHCHHPCNVNNGHCCHHKHbaNCHPH!TAMYTCTFCmymPP",
"TTWCVsbmUNbbP!TTRTRRTHNCnMVPTCCNNjlNCTVVHHMNVHVKTRAHPCNNNMVCmTCT",
"TATNNasslsNPYYCT!TRRTRKTmMVRTKCCCVlNCPCPHHCCCVCVTATTPCjbsyjuCRFF",
"TCPVNtasspNV!~TTHMCCACTAMVbHKTTTTPHHUDPCVHMCPNNNbNPWRCjljjbnCCDD",
"DVCGVbNVMNVMP!PPVNNNNyaffVbVCHMPT!PCPCPnfNbNVbsjbCPTFRCUCCnfbnPC",
"CGCLVZCCAHVVH!PUjlaaeetsfVVVnCfGCCPTPAHCslslbjsprjUMCAGUFTFCmnLN",
"NjaGCMMmCHHCCTPHbxasspprjNHAZVakjVPCPCPVfNNVNlaerjPnCTYYCFTCVVPC",
"lNsHNnCCUNCHCKTTNzalbCAMbNNCnMsalVCMbCUZMHUTVNyeetVbPCYUCFTPVCNN",
"VlbVCCCTVVVVTTQRVlNVAATCVVVCmbbsVCCCNLHCMCPWTCbsetsNPCGNMCCClHVP",
"HTAHbCCTHVVCTTTTGNlVZRCCVCHHVnnNGAKZPPVVjCNCPCPnfbNVNLNsbMMCVVNP",
"RHCCmCPTTQCCVHK!PVbCCHVmNHHH!FNNbACPITCNsbjCCCCMCCACCTVVNnCHNCHT",
"bCHMbNHPTTVVNHVTVbjbCPNsfNVVTWVMMACHVCVNbnubNCnnCPCCTTCHNgMACMHV",
"ssGNNNbVCACVVPHNbsNVVblbNssfnTVCMYVxVDCbjunCVNfbbNCCACVNbMAATTCV",
"fNGNHNssVCAMCCHfsbNVVjlVCbyerVVRAVNlVHVCbnMCCVVbsasCHCCGnCACTAVN",
"CCCGCVbjMAACMCCnnVMHCbVHAnbtesVRCHVVCHCVNnCnCPTCfsbVTCCHHCCnnCVm",
"nTP!PCHCFFAMVnCCCNMCRVHUFAnbajsVfMHCNHKRCCnNCVPTCfsjCVTTRTTNnUVM",
"bCATCHCCDMuLCCMMMVNbQPCbbnCCbssNsNVCCCHVVCVVNVbPCCVNjkbbAPCNCFDC",
"CCFRTHVVbbyzVVAMVVNCT~CVjjnIbspsrNmPFPVVNGVPHVaVCTFCseeaMHTCQRRF",
"TMAATPVNbjtbVCCCACTCT~PbjubLzjjVsNbTFFmbNGHWWRNlGT~HbttslCHCPAFT",
"TRRATHHCbbNzlNNTFRTKT~)~FCjskCjVzHV!RFARTHVT~TTNVPQTCnsslCCVMDAW",
"PTHMCKUMnCUHsjjVZTPCCCP!FFVjVCPDLPMGCCCCHGCVCPUCVGCVnAMCVDmbbFD!",
"QTTCVVPVnNVHNNfjslVfbslLnCCVCDY!TCncVnnbssNbNzjasGNGCACMCCVuyCCW",
"TRTVGMHCCVTPCCCjrpVspsaxafMCCH/)EPVvjildeafdbzddsVHVVCKCVCVNfVCT",
"T~~TUPPVCNbCPCnNttlNbbNVapfCJJw8i8PUzwslsssNGxNjsbCVAARCCVMMbVMT",
"WRTQQTHfkpsCTPCCCCHCCATPNbg(/ 431&$YVffVmVVCYY!PVbbmKCVMbNmCCHHR",
"TVVHTPHfe09sVCPTRFPTTFACBbV(#33,<<&STCVVVCCTQ~FTHNbNCAHbfNVHCVNM",
"VbVVVTHdq0esNVTTTWACPPCCCfLC<3:-;<;@IVbmlNnT!~TTHVslfVlssNPTVsNj",
"NVVVmHHNjsNjlbCCF!RCmCCCVNP$4::,>;<*YDmmlabACAHRCAbsNVVNmbVDVNpl",
"UPHCMMVNjVPHVbbND!PNfNCFTPT.3-,,,:>=YNbNjffbmMVCMVbfVCCCCNGVNjNC",
"'QRHVVsVNTPKCCsCPTPCVnC!YTI.>->,,-:+^CPCbMCCbHCTKVNNCTCGGMCLVMVT",
"!QRFCVbUVHVVNMNCQPHCHnCCPPT7;>-;;:>o)UHNgbMCCTFTFVNsbNbVTTKHlVCF",
"GP!CnbVVVVNNNMmCCTHCZTCCDITY=<>:>*O!__QKCbfNKR~WFCmflppbTRTVVCCN",
"NNGCCVPKRCNfNVHPT!PAC!TCFDDU5X>:*X6)_(HCUbfMKFWRFFACVjsNHCCHTCMN",
"NjlVMPVCHHnNVHHKCRADLCNbVMDTID%22)`(ImbNLNbbU!TTRRR~KHMVNMVPTVCG",
"CVjVCPHCHHCCCVHVTAKTCCsNjjlMKTT^)~!HbjsjNsbP!QVT!RRRRATTnVVTTCCC",
"WPHVUPPAVHVMHNNbNmTTRCjljisnHTTTWDPVVttasalV!!QTHMCVTATKMMNCTPRT",
"T!PHUVHBflfNVjsjbVURRRPUVVnghCPDPVCVmnbVNVNMP!PTMNNVbasffVmNCCMC",
"CCPATKHVfdsNbbstrsUCCPCUARRMBnLNCGCLVMCCAHVVH!PPlsaapettfNNCnVnL",
"lVPKHKPCyVbCNlserjPnHFYYCFFCCnUVbjsxCMnnCHVVCTPHNxassrtrlNCFZMpk",
"dVCMbVHAMDPPVNaqetVfPCYUAATTVVNNllbGNnCCPNCTHTTPVldlfCCnNlVCMNsa",
"VCCMNHHHMCTWPCNsetsNPDGzmCHHlHVPVNbVCCCFHVVCTKTTVllHAFRCVNVCnbbN",
"VAAAUPVVfVNDPCTmbbNNNGbjbNMCVNNPPTAPNHCPCVVVPRTWVNsMCRCVNHHHVnbN",
"mCCFPPHNsbsVHHAnFCCHCPCVNnCHmCHTFTCHbHUTTUVMVHK!PVbVCPVMNHCF!TMb",
"mACLVCVNNnfNNMmmCHHMTTCVNgMAMCHVNMHMbNCPTTHNNHCPVNsbVLmfflmCTRVN",
"MQGzVDClffnMCNfbbNMCFVVVbMAAKTCVssVNbVjNHKCCVHCNlfNVVNlbNsjsCPCA",
"FCjVVCCVbnMCCNNbssfVTCCGnMAKHKCbfNGVCNsjVZACHCHbfbNVNblVVbyeeVCF",
"CCVCVPCCNbCnCPTCfsbVTCCHHACnnCCVVCVGHVbbZAAVCCCnMVCCCbNLAnftejNT",
"nnLVCVATCCMNVVPTCfslHVTFRTCmmPCmnTT!HCHCAAAMMbCCVNMCTDPTRZCbsssH",
"sNVVCCHCCHVVVVNCHVNmbljbAPCCCDCCbCTTCHHCCAnCCVnCMNNbQDCllnCCNslf",
"afmTAHHVjGVTHNsVVRACsqpaMHTCWRWTCCFTTHNNbbalVCAMCCVCR!DNlfnPbsps",
"fVnTRHNbVHPT!RNlVT~PfatsNVHCPAFTTCAFTPVNbbylNVHACKHAK~TNsbjGljsN",
"lHVQRFKKTHCPWTTVVPUPCMssNCVVMACWTRFADPPCbjzNlNNHARKKT~(~FCjsdHNV",
"HHNGCCZCHHCCHPPVVHCVMACMVPNbfFC^UTFMCDPVbCPDlssHCTTCCCP!FFVNVKPH",
"THbGCnMbsabjNzjjsGVVCACnVHVfuCCWQTTMVCPCMNCCNVfsusGflslGMCVVCCPP",
"TPNLbfjstaldbxdasVGVVKHCMCNNfVMWTKQCHVPCCVPTCCmfrpVjapazssNCCuCC",
"THGNjesjssjfGGNksNCVAFRCCNCCmVmFTW~TPPPCVNbCTCCVapzjbNNzaeybyeaC",
"HNCGltsVNVVVYQQPVjbMCCVMbNNVCCCTWTTT!TCjkpsCDTCCCCCCCAAPNsbujpsN",
"stNVCCnVCVATT!RTHNfNAAVNfNVTCVVCTCCGPTCse09sVVKTRFPATRTFVmjnmVss",
"atNCPVmmlNnR!~TTHVfdsNlssBPTVjjjVNNVVTHjp0esVVTTTWFCHCCCVbmCFFFb",
"fsMTCGnblafKCFPTCAbsNCCNbbVHNjsllNGVnCPNsslsNNVCF~TCmPHCMsbnAFTD",
"CCPTHlsNlsfCbMGCMVbfVVACCVVVNbjCUPHCNMVNdCPCNbbNCTTCuNCAQPCCAARW",
"TVHUHNUMnMMVbDMTHVNMAQVVGCVUVVCT'QRKCVsGNTTHCCbLPTPVVnD!YUTCZnRP"
};
