/* XPM */
static char *result[] = {
/* columns rows colors chars-per-pixel */
"64 64 78 1 ",
"  c #7E6C4A",
". c #816E4B",
"X c #86724E",
"o c #88744F",
"O c #867350",
"+ c #8A7651",
"@ c #8F7954",
"# c #927B55",
"$ c #957E58",
"% c #968057",
"& c #968158",
"* c #9C855C",
"= c #9F885E",
"- c #A0875E",
"; c #A1895F",
": c #A58D61",
"> c #A88F62",
", c #A69063",
"< c #AB9264",
"1 c #B09767",
"2 c #B49B6A",
"3 c #B99E6D",
"4 c #BDA36F",
"5 c #BEA471",
"6 c #BFA873",
"7 c #C1A46F",
"8 c #C2A672",
"9 c #C5AA75",
"0 c #CAAD76",
"q c #C7AD79",
"w c #CBAE78",
"e c #CDB177",
"r c #CDB27B",
"t c #D3B57C",
"y c #D8B77D",
"u c #D5B97E",
"i c #DBBB7F",
"p c #E1BD7E",
"a c #CEB880",
"s c #D2B780",
"d c #D5BB82",
"f c #DBBD82",
"g c #D7BF88",
"h c #E1BE82",
"j c #D6C084",
"k c #DDC185",
"l c #D4C48A",
"z c #DDC489",
"x c #DEC98E",
"c c #DACB90",
"v c #E3C385",
"b c #E9C686",
"n c #EBC887",
"m c #E4C689",
"M c #E9C788",
"N c #E6C98C",
"B c #EBCC8C",
"V c #F1C984",
"C c #F1CE8C",
"Z c #EED08F",
"A c #F3D18F",
"S c #E5CD91",
"D c #EBCE91",
"F c #F2CF90",
"G c #E4D294",
"H c #EDD293",
"J c #EDD997",
"K c #EDD698",
"L c #EDDA9A",
"P c #F3D392",
"I c #F8D694",
"U c #F5D996",
"Y c #F9D996",
"T c #F1D698",
"R c #F4DB9A",
"E c #F9DC9B",
"W c #FDE09D",
"Q c #F7EAA8",
/* pixels */
"HNDDBBSvvMnnBFCPAMzfhmvmHIHSzmBARRIABBvHDBNNmNmDTFDMBnBBHHHvvbCH",
"BNDBGHBHNvvnPIEYABMfzddvPIFNBBBmNKRBMvBmNnNvNnbNDPDDVTZBHHAmhpZB",
"AAPBBHnBHmfvPAYIIAABNkdMBBDDHBmNmzSDBBGBHNMfvNDFFRFCBLPCPZmvimSP",
"PPYBmkvmKmvvKRPIYAIYPDmCBMNPPBZmMkzmBHNBDDMMDBDDPPCHZmmmMnBBnZZP",
"PCPmmgfkzfvHLTBPRPIIIPDPvBNIIBBnBmzNBHZBDHnBDNBBHCPHZBkzfhvpBUAA",
"PBHNmyikfdmNRRHPBBBBACPCnvvDFPPPIDDBHHZPNDMNBMvmMvUIPBkzkhhvBBZZ",
"ZNBSmvvmMmNBPRHHvmMNmufhvNmNNBBZIRHHKBDvkzvMBkfkvmHPIIBKSBbvvbHB",
"BSBGBnBBCHNNNRKHvggdttudhMmNMBvSBBHCHCHBfzfzkkfdykKBnCHKZIABbvGm",
"mkfSBnnmnDDBBPHDvckkduuyzmBAVmulkMKBZBHBpmmBmmfadhKbBPLKnAAZNmJB",
"zzfSvnBBKMBDBPPPNlgfvBCMmzNBnnfdlNBnmBKBMBHHmmirttNhGBRKAAAZNBmm",
"NmvNBBBZDNNNPFIHNzxHCAACmmmBmvvkNBBnmGHBnBHYHBvkytfNZBSxbVHSxZmH",
"BTCDnNZZNBNNPPTIBmkmnABBmZHBBnMmNCCCHPmmkBvHHAZvvhmNnGmhknmZNmvT",
"PPBBvZHYTHMMNDFRHmmnBZmMmBDHYAmmNnBPJHSmkvvNNZAnDBBCDTBNvnBDmmHI",
"vNDnkmZHATDBmDBPmmkvBHmfvmmBPPBmnCBSNBmMvvhmmNvbCDBBFPBNNhVCBnHm",
"ffSMmmkmBCBBNDNMvkzNNmzvvkffMTNCnLNxmZBmvhbBBmhvvMNCFNNmmbBCPPBm",
"hvSmBmkfBBBBBBDvimmBmkxmBvityNNPFNvxBHBmhbnnCmmvfdhNFnDSbnCCPDBm",
"NBNGBNvvnVABnBBvnmBBBvNKCMvutfnICBNNNHNDMvBMZHHBhfkNHBBDDBCvMBNM",
"vIHYDBDBAACnBmBBBMBBABDPAVMvfkfSvNDNmDCPBBvmNmPPBhfvDNPAIPPmMHMB",
"vBCPBDDCZnbGBBnnmmmvUHBvmbBZvukvhMBBBBNBBBBBBxmDBNNMkzvvCHBmBAZB",
"HBAIPDmNvhizmBZnBmNBPRZmzkvJvfsfdkvPAHDmzSmHZmfNDPPNfttdBBPBUIUA",
"PVCCPDNMvkizmnBCCCZDARHmfvvNxkfNfmMTIBMMMDDIEAmzNIEBvdufvSZBZCAP",
"TIPCDPHNvvzmzmMHPPPCIRWEACkfzBzBmDBTAICAHHBHYYPmNHTHnMhfzZNNmAZY",
"HIDnBFKnvBKDzfvNCCPBBNKLAANmmDHBHHvSBBBBKBBDBHKNNSSNnCnBMZzvhAZE",
"TPTnNNHNMBNSmmfkfvShvfzSBBmmBBHPHBvSMbMvffzfvxkkfSmDBCNnBZMhpBBU",
"PFTBHMKBMNAZBBnkydxfddfzffMBnpBHIKMGzffftdkzkxggfNBBNCABNmmmhZnY",
"IREPHBHBBzMBHBBmuyxvvvMxgtfvitjNHBNSfyfkfkkfcSzkkmmBCAPCBNBmvmvH",
"YPTPTTDkjdfBPHBBBBNDBBCHmfkvfufmBvBNmukmvBmBLLUHNkvmBBNmvmmBBBAP",
"PBNNPTNfaq0fmBAPUAPPPAPZMvmpkkutttkzvkkmmBZPTWAPDmfMPCNvvvBZZmBB",
"BvSmBPBfrqtfmNPTPIABDBmkfttufiftr0rtuttutdimZEPPHBfkvmkfkvHKBkkz",
"mmNmMBKMfzvvmmBBAYBkudttw90retdt0qrtrrtrr0tkkvzBBBkfmBBmmmmZNkuz",
"KKDBmBmmzBHDMmkfkddr9ertrq9900e644122445990ttudffMvhNBZBnmBBMkzB",
"QTPANNhNmHDDmferrer9972<,:=*%#@##@%@++oO+@%,19edtydvBLmNBBSGmBnP",
"RRPHBNvKBBNfttw994,=##$::=&==:--=;:::::::-**$**&4rqwtzkmUPFDzBmA",
"NHRBBvmNBvgrrr92%#$,<:>:::::>:::,,:;::::::>><>>=+:89qetkPPPNNBBm",
"NmBBMBDZDfue8:@@;-:,<::>::----*-=;;;==;--::-=:>>:*=3990iBBBZHBBN",
"mkzmBHNNzz0,%@=:::,;;-=*----;-::;;;;-;=;:***----;:;*=5etuMNHPBBm",
"BmzNBHDMkf4&$::--====:::;;:;;;:-**--==****&--:=====;;&8ttfmPIBBB",
"IHDNKHZvf9&:::::;,;-=-**-=*=*=------*=**---:-*-:-;;=;%;9tuvBHPPA",
"PRHDKBBid4:>:&&*&;;=-:::*-&=-=%=%*-$$*&&$**-:*:<::;;-==;0tmBBBnZ",
"BBTCHCDd08==&&*&=**$$$$$$$$#%$%%%$$$$$$**$$$$*-;:-;;==$@9tmBbBvG",
"kmDFHFDd00;+**&*&&$#$$#$$#%###%##$####$#$$$%#&*-;=:=&#o#9rBZVmul",
"lBBnvNDhtu9@@&%%$$$$$#####$##############@####$*&**=%.O<0dNBnmkj",
"MBBBmDDvutt91X+%$#######@####@#@@@##@@@@@@###@#*$%%#@.20rmNBvvvk",
"NBCCKHNvrywrq4+o###$##@#@#@@#@@@@@@#@@@@@#@@######X+o3w0dBDBBMvM",
"nBBAKHSmfttwq07=+X######@@#@@######@@@@@@@@@##@o  #28r9ukBBARAMv",
"mBZSmBBmvbiy0w885:#$####@@@@@@@@@@@@@##@@@##@##@&350rafddmmBPImB",
"nRSxmZBmhvMNMr00900<:&##@@#@######@#@@#$++#$#*1758wraffdkkffMJBC",
"ZBkcBZBmvvVBBvdtw90ww963>**=*#%%$$$--@%-##-;27979wrfkffkBvituNBA",
"nZNBSPNBMvBvDHTvytryrrrrr00999699999944479999900edvMMfzDCMvutfBI",
"vnHNmBAPBBMMNmPPBddsduuuduu0rrre0trawrrre0090tyuvfkmBBDTCCMvdkfN",
"fMNNBBNNmBBNNNmZBBnmkdtydfdytfuurysftttutytuuvvvvmvvUDNvvMnBmfgv",
"dkvPCFDNmSNHDmfmBPZBftddMDNMBBnvkfvNvzdftutgzvBnBmmBYRHmzhnJvfsf",
"kMnTACnNMSZPYHmzNTEHvduuMDDNHCAUTBCCPZNmvvuvmNDBBADBPRHmdhkGzhfm",
"mSmRIACCPHBPYITmNHTBnMvfvNNNnCBRPIACZHHBvvzxzmMDAPPCIEWRABzfgDvS",
"HHMDBBCBKNBBZHHBNDBNnCBMNDmvhABEHIAnZZJMbBHZzfvNCPFBNBHRIANvNDHD",
"PShcBMMhffzfmxzkfSNNBCBMDBNvpBBYTPTnNmHBbMBSMNfkivNhvfxSnBBNBBHP",
"TKMGvpkftdzzfxgdfNDBNHCCBmmmhZnUPFTBBmHZnNPHBBvktdSfdfdxifMBnpBB",
"PDNxktfkfffvGSmlfmmBBCPBBmBBvmmZTYEPHHHBSxvBDCBmutxkvkmxfuiviykm",
"BvBSzikmMNNNLRTHNfvMCBNnvmmmZBZAYPTTTTBkddfBPPNBBBBBBCAHmfkvfufm",
"fuNBBmnNBNBPTEATHmfnPBNmfBBZBBBmABmBATBfarwfmBPIYAHPPAAZMvzvmmvd",
"dtMZBNvMNvnPYEPTDNhgvmzfpvHTBkzzmzNBBTBkaqtfMNPPIUABZZBBBvmMPAAv",
"hkMPBSBvzdvFBBHABBvfmBBmmvBBmkizmNNmvBHMhgvfzmNBAEPBmZHBvkvBCAPZ",
"BNDTDzzvzuhnmvBBnDvhNBBBBNNNmmkBKKHBmBmmfMPDmvvmBIPBhmmBUHBBAVUY",
"TNHHDvKnbBnBvZBPDNmnBHNBDNBGmBmPQTPABmkNNPDPBNvGHPHmmnHWLHIBVnAH"
};
