/* XPM */
static char *result[] = {
/* columns rows colors chars-per-pixel */
"64 64 175 2 ",
"   c #AA955A",
".  c #AD9B5D",
"X  c #B19D5F",
"o  c #B3A25E",
"O  c #B5A361",
"+  c #BAA465",
"@  c #B6A862",
"#  c #BDAC65",
"$  c #BCA468",
"%  c #C1AD67",
"&  c #C5AD6C",
"*  c #C9AD6F",
"=  c #C3B167",
"-  c #C3B369",
";  c #CAB36D",
":  c #C7B96C",
">  c #CABA6D",
",  c #C6AB73",
"<  c #CBAE73",
"1  c #C7AE7B",
"2  c #CDB274",
"3  c #CCBD71",
"4  c #CCB37C",
"5  c #D1B575",
"6  c #D3BB75",
"7  c #D9BF75",
"8  c #D3B67B",
"9  c #DAB77C",
"0  c #D6BA7C",
"q  c #DABC7D",
"w  c #EDB57A",
"e  c #E2BC7D",
"r  c #F0BE7A",
"t  c #CFC16E",
"y  c #CFC275",
"u  c #D3C574",
"i  c #DAC476",
"p  c #D5CB77",
"a  c #DDCD77",
"s  c #D3C679",
"d  c #DCC27B",
"f  c #D6CA7A",
"g  c #DCCC7B",
"h  c #DFD777",
"j  c #DCD17B",
"k  c #E3C376",
"l  c #E3CE72",
"z  c #EBCB75",
"x  c #E2C47D",
"c  c #EDC57B",
"v  c #E3CB7C",
"b  c #E9CC7E",
"n  c #F0C17B",
"m  c #F2CC7F",
"M  c #EFD773",
"N  c #E5D37D",
"B  c #EBD37D",
"V  c #EBDD7B",
"C  c #F1DE75",
"Z  c #E4E27E",
"A  c #EEEA7E",
"S  c #F2E27D",
"D  c #CFB980",
"F  c #D2B780",
"G  c #D5BC82",
"H  c #DCBD82",
"J  c #D7BF88",
"K  c #E1BE81",
"L  c #ECBC83",
"P  c #D7C283",
"I  c #DDC185",
"U  c #DACE80",
"Y  c #D4C48A",
"T  c #DDC489",
"R  c #DEC98D",
"E  c #DDD282",
"W  c #DED389",
"Q  c #DACB90",
"!  c #E3C385",
"~  c #EAC585",
"^  c #E5CA84",
"/  c #EBCA85",
"(  c #E4C689",
")  c #E9C689",
"_  c #E5CA8C",
"`  c #EBCC8C",
"'  c #F0C382",
"]  c #F3CB83",
"[  c #F9CF86",
"{  c #F1CE8C",
"}  c #F9CE8B",
"|  c #E5D382",
" . c #ECD483",
".. c #E7DC84",
"X. c #ECDC84",
"o. c #E1D58B",
"O. c #EDD18D",
"+. c #E3DB8B",
"@. c #EBDC8B",
"#. c #F1D385",
"$. c #FCD686",
"%. c #F2DD84",
"&. c #F3D28E",
"*. c #F8D48F",
"=. c #F3DC8B",
"-. c #E5CD91",
";. c #EBCE91",
":. c #F1CF90",
">. c #E4D394",
",. c #EDD293",
"<. c #E4DC92",
"1. c #ECDA95",
"2. c #EDD698",
"3. c #E6DE9A",
"4. c #EDDB9A",
"5. c #F3D392",
"6. c #F8D694",
"7. c #F4D995",
"8. c #F9DA95",
"9. c #F1D698",
"0. c #F4DB9A",
"q. c #F9DC9A",
"w. c #ECE48E",
"e. c #EFE88A",
"r. c #F3E385",
"t. c #F1E884",
"y. c #F4E28C",
"u. c #E7E090",
"i. c #ECE493",
"p. c #ECE49C",
"a. c #EFEB98",
"s. c #F3E393",
"d. c #F0EC96",
"f. c #F8EF91",
"g. c #FBE49B",
"h. c #F3EA9A",
"j. c #FAF59A",
"k. c #EBE5A2",
"l. c #EFEAA3",
"z. c #EEEAAC",
"x. c #F3E7A4",
"c. c #F3EAA3",
"v. c #FAECA7",
"b. c #F0E7AE",
"n. c #F3EAAA",
"m. c #FCF4A3",
"M. c #F7F3AE",
"N. c #FCFBAB",
"B. c #F3EDB5",
"V. c #F4EDBB",
"C. c #FDEEBA",
"Z. c #F4F0B3",
"A. c #F8F3B3",
"S. c #F5F2BC",
"D. c #F9F3BC",
"F. c #FCFAB9",
"G. c #F4EFC2",
"H. c #F3EFCB",
"J. c #F6F3C4",
"K. c #F9F5C4",
"L. c #FCFBC3",
"P. c #F5F2CC",
"I. c #FAF5CA",
"U. c #FCFACC",
"Y. c #F6F3D3",
"T. c #F9F6D3",
"R. c #FCFBD2",
"E. c #F7F4DB",
"W. c #F9F6DB",
"Q. c #FCFBDC",
"!. c #F9F6E2",
"~. c #FCFBE4",
"^. c #FDFCEB",
"/. c #FEFDF3",
"(. c #FFFFFB",
/* pixels */
",._ ;.;.,._ -.( K ) ) ` ` :.} 5.:.( ( H K ( H _ 9.6.:.-.( ( ` O.0.9.5.5._ _ ) ,._ { _ ( ( _ ( ;.9.:.;._ ;.) ` ;.,.,.5.! ! ! { ,.",
"` _ _ ;.;.;._ 5.` ! K ) :.6.q.8.*.` ( H T H H ! ;.6.:.;.` ` ` ) -.,.6.` ) ! _ _ ` ( _ ( ( ) ( ` ` 5.;.{ ] 9.` ~ 5.,.` ) e e ;.;.",
"{ 5.5.` _ ,.` { ,.( H ( 5.&.q.6.6.5.&.` ( I H ( ` ` _ ;.,.` ( ( ( ( -.;.` _ ;.;.:.;.( K ( _ ;.:.:.0.:.:.` 4.5.{ 5.&._ ) q ) _ 9.",
"5.6.8.` _ I K ( 2.( ! ! ,.0.5.5.5.6.6.8.:.;._ ` ` ) -.:.5.` ` _ _ H R ( ` ,._ ` ;.;.) ( _ ;.;.:.5.5.{ ;.;._ ( ! ( ` ( ` ) 5.O.5.",
"5.{ 9.( ( H H H I H ! ,.4.4.) 5.0.5.6.6.6.5.;.5.! ` _ 5.6.` ` ` ;._ I _ ` 9.` { ;.;.` ) ;._ ;.` :.{ 5.5.` _ ! T H H I e _ 7.{ *.",
"5.` ,._ R 9 G H H G ( ` 0.q.9.5.` ` ) ` &.{ 5.:.) ) ! ;.5.5.5.5.5.;.;.` ,.,.,.;.;.-._ ` ` ( ( I ( ( 9.8.6.` I T H ! ! ~ ` ` ` O.",
";._ ` -.( ! ( ) ) ( _ _ ,.0.,.5.( ( ( ( ! H G H ! ) ( ` ) ;.` ,.5.0.,.;.,.` ;.) K T K ( _ ( ! I ! _ 2.5.6.5.` 2.` _ ~ ! ~ ! ,.` ",
"` ;._ >._ ] ` ` { ;._ _ ;.9.2.,.I T H G F 4 9 H H ( ( _ ) ` ! _ ` ` ,.:.,.{ ,.` K T H I ( H d G 9 H ,.` ` { ,.2.{ 8.5._ ( K 1.( ",
"( T H -.` / ` ) _ ;.;._ ) 5.,.;.( Q J H H 9 G 9 T ( ;.} ] _ q Y I _ ;.:.,.` ,.` K ( ( _ ( ( ! F 9 ! ,.~ _ 5.4.2.` 5.&.` ` _ 9._ ",
"T I H -.) ) ) ` ,._ ` ;.:.:.5.5._ T J H ! _ { ) I ( ( ` ~ ( H J T _ ` ) ! ` -.{ ) { ,.9._ ( q 4 8 9 _ z ,.;.4.2.{ { 5.,._ _ ( ( ",
"_ T ! _ ( ` O.5.;.( _ ` 5.:.9.5._ I R ;.{ 5.{ ` _ ( _ ;.( ! ! H _ ` ` ` ( >.;.` ~ ` ,.7.,._ ( H 8 q H ( ,.` -._ ) ` ,.` R ;._ ,.",
"{ 9.{ :.) _ ` ,.;.;._ _ 5.5.6.5.-.( I _ ` } ` ` _ ` ;.;._ ~ ! ! _ { { { ,.5._ ( I ) ) ,.5.` 5.! ! ! ( _ ` -.( H I ~ ) ` ( ( ( 5.",
"5.:.` ;.! ,.;.5.7.,.` ( _ ;.:.0.;._ ! ) ` ,._ ) ( ;.;.:.0.5.) ) _ ) _ &.,.9._ _ H ! w ) _ ` { ) ` ` ` { ` 9._ _ I ` ` :.( ` ;.5.",
"! _ ;.) ! ( ` 5.5.5.` _ ( ,.` ,._ ( I ( _ ,.! I K ( ( _ =.5._ ) _ } O..._ ` ( ) ! ) e ) ( ` ! ~ ` O.` ` 5.5.{ _ ( L ) ` _ ` ;.) ",
"H H -.( ( _ ( _ ` { ` ` _ w.` _ ! H ^ _ _ ! T z ^ I H H ~ 5._ ] ~ 7._ R _ ;.` ^ x ! ~ ` ` ( K ! ! ( _ { { ` _ ( ! ) { { 5.5.{ ( ",
"K ( ` ( _ ( H H _ ` ` ) ` ` ` ! H ! _ _ ( I T _ ` ~ H 9 9 _ ~ 5.A ` ^ _ ;.` ` _ Z b ~ ` ` _ ~ x H H K _ 5._ ` _ ) ` { :.:.` ;.( ",
"_ ` _ -.` ` ! I / { { { ` ` ` ) B ` ` { ` ! _ { { ~ ! q 8 H L } ] ` _ ` L :.` _ ) b ..) ` ,.9.` K K I _ 5.` ` ;.` { ` ) ~ ` _ ` ",
") 5.5.0.;.;.;.` &.{ { ~ _ ! / ` ] ( ' ` 5.` &.C } { ) x h H H ;.! ` ` ` ~ r O.5.` ~ ^ ! ` b :.5.` z x ! _ ;.9.&.6.5.5.( ! ,._ ~ ",
"! ` :.5.` ;._ :.` ` ! O.) ` n ` _ _ ( ! 7.O.` c e ) { ` ( H J ! H ~ / / ~ _ _  ./ O.` ` _ _ V #.` ` ( / v J I ) { &.` ( ` &.,.` ",
"` ` &.6.5.;.( _ ! I q I _ ` { ) B ) ( ` 5.} b ) e I ) ,.r H F H q I c &.&.5.` %._ ~ _ %.r._ / R ` j.{ ` d 8 4 q ) ` 5.` 7.6.6.&.",
"5.` ` } 5.,._ _ I ! H ! _ ` ` / { :.`  .&.q.,.| k ! K >.! c.! m ^ ~ ~ #.6.#.t.~ r.>.` 6.8.&.` I ` =.q.{ M e w 0 ( ;.;./  .{ 5.5.",
"9.6.5.{ #.,.;._ ^ ! T R P ^ ` O.&.} $.$.5.$.g.y.&./ &.H P X.N  ._ ` _ 5.&.*.&.S O.` ` { =.*.5.) _ O.5.:.L ~ e H ( ` _ _ ) { { 0.",
"5.5.5.) C ;.9.) / ~ 2.` P I I ` / *.r.` ~ ~ r.0.&.*./ &.Z %.*.r.$.{ ) ~ / #.{ ` ;.;.' ` O.s.,.` O._ w ) / { ` ) _ ` ( ! K &.{ q.",
"9.5.5.) _ _ :.` ~ ` _ -.( ( I T l B _ x ! / _ w.` V / B ` { ,.=.7.g.x #./ #.) L H J K K ( R T H H -.~ ;.@.{ ` ) _ ;._ v e ` ` 0.",
"5.5.9.` -.` ,.` ~ _ X.X./ _ ^ d | G ( d l k q R x / ) #.` q ` { 5.=.^ >.! e ! H 9 K K J K 9.H J / ) { _  .O.5.' ` C ( ) e _ / 9.",
"5.8.q.5.,.,.,.` ` ! ( ` O.O._ R q  .R ! ! ! | ( w.G d B q a G ~ &.S e.` ! 6 e c X.x K K >.i.#.v x Z ~ `  .&.5./ ` _ ` ) ) ( ) 5.",
"8.5.5.5.9.5._ ! G G L ` O.,.` X.@./ _ O.` { =.O.~ N c r./ b q ! ` ~ O.y.] q =._ s.` _ ` @.=.C.=._ ~ ^ ) V r._ / ~ ( ! ` ` ` ` 5.",
"5.` _ _ ,.9.` H D 1 5 H _ _ ,.5.7.5.&.&.=.%.&.O.^ ) ( c v ! q V 7 8 |  .` v  .! s./ [ g.&.8.=.6.O.h. .@.&.%...! b ( _ ,.,.( ` ` ",
"` ! _ _ ` ,.` I 8 1 d q ^ %.5.,.7.7.{ &.@./ / ^ v N d 7 ! x b N g l X.v t.x X.d X.x x / %.8.s.m.=.y. ./ r._ ( I %./ ,.5._ H ( P ",
"T _ _ _ ) O.,.^ I T | ! !  .` ;.#.f./ ! k d a N 6 a i D.r.r. .A.N N g N v w.N v i w.B.y.g.=.x.=.v.g.) V ( ` b  .! ) _ ` _ ! H I ",
"1.,.O.` _ ~ ^ ( U ) ] O._ ^  . .^ d d x 6 i | |  .^ g N ..h.X.| @.@.g g +.g g a g ^ a Z.b b @.v.c r.^ b O.` S 0./ ` ` ` _ ! I _ ",
"v.9.*.&.` _ I _ ` #.5.O.~ I 5 7 7 d d | i v @.| B.| | o.p.d.a.p.p.S.S.<.1.p.p.+.E f W p.u.N i...b V  ./ #.5. .O._ / _ >._ _ _ 6.",
"4.7.7.&.` _ ) ,.`  .| ! q q 5 i i i i s s s E p.I.C.V.B.L.R.Q.I.Q.U.U.U.Q.I.^.L.F.Z.Y.G.k.l.P.V...N N X.N ^ ^ / 1.6.5.-.( ( ` { ",
"_ ,.7.` ^ x _ _ O.^ I d d  .g t t j n.s.x.n.B.Y.I.Q.Q.^.Q.~.Q.Q.~.^.^.^.Q.Q.~.^.~.~.Q.^.~.Q.Q.R.J.J.i.w.| 6 v X.&.5.5._ _ ` ` ) ",
"_ _ -.` ` ` ,.` ` ^ d d i u 3 y N e.j.N.D.J.Y.E.Q.~.^./.^.Q.E.E.!.~.^.^.~.Q.^./.(./.(././.^.^./.^.Q.E.i.D.g d v %.{ / O.,.` ) ( ",
"( I T ! ` ,.^ ` I ^ i > y j w.p.c.M.F.L.R.!.^./././.(././.^.^.!.~.^.^.^.^./././.(.(.(.(.(.(.(.(.(.^.L.p.+.N v d d / ` O.5._ O.( ",
"` _ T ( O.,.` ^ ! x 6 : j p.S.F.U.Q.Y.R.!.^./.(.(.(.(.(.(./.^.~.!.^.Q.~./.~.!.^.~././././.^.^././.^.~.p.j ; 6 7 6 B r.5.5.` ` ` ",
"5.5._ ` ,.O.O.( x u : j i.S.^.^.~.~.!.~.^./.(.(.(.(.(.(.(.(.(./.^.~.E.E.Q.^./.^.!.E.E.^.!.~.~.^.^./.^.J.+.> : 6 9 0 ! O.5.5.5.*.",
"5.0.,.;.,.O.O.q d > > a i.S.^.(././.!.E.!./.(.(.(.(.(.(.(.(.(./.^.^.~.~.~.^./.^.!.!.!.!.^.^.^./.(.(.^.U.n.| j : 6 i b ~ ` _ ~ O.",
"` ` 5.&.5.{ ` x 7 i p | p.K.~.^.(./.^.!.!.!.^./././././.^.!.Q.Q.Q.R.Q.~.E.~./.^.E.Y.E.E.!./.^.^./.^.Q.F.i.f %   2 0 ) ` ~ ` ^ >.",
"T ( ,.{ :.{ -.q 9 6 = : E p.J.Q.^.^.~.Q.Y.Y.Y.Q.~.~.!.!.E.H.H.P.P.P.Y.E.!.!.!.!.!.!.W.~.^.~.~.^.Q.T.J.P.k.p @ X 2 7 ` &.] ( q Y ",
"T _ ` ) ( _ ;.! 6 d 6 # 3 E 3.b.G.R.~.Q.U.U.R.Q.Q.Q.~.W.E.Y.P.P.P.P.Y.W.~./././.^.~.Q.Q.Q.Q.Q.U.J.V.u.<.j : . $ 2 G _ _ ) ) H G ",
"( ` ` ` ! >.;.I 0 q d 6 > - u E <.z.J.R.U.U.U.U.Q.~.Q.^.~.Q.W.W.Q.!.~.^.(.(.(.(./.~.~.Q.R.T.J.B.p.W f y = o & 2 8 ( _ ` ) ! ! I ",
"_ ` { { ,.5.( ( 8 0 8 6 0 ; O # 3 U u.l.B.B.J.J.U.Q.Q.~.Q.Q.Q.Q.Q.Q.Q.~.^./.(./.^.Q.J.b.3.+.+.E s y # O . ; 8 5 0 ` ;.` _ ) ! ( ",
"` ` ` 5.1.9.;.( H 8 8 2 2 2 2 O X + 3 f U W <.3.k.S.J.R.R.U.U.L.L.L.L.I.P.Y.Q.E.P.S.k.W y : & % o   . - 5 6 2 q ! _ ` O.0.&.) ) ",
") ` ` ;.( ` ( ( ! ) e 8 < 4 < < < + @ % = : > s p E W p.z.n.l.l.l.a.d.p.p.W W o.<.<.E 3 # O .   . ; 2 2 6 q I q q ( _ _ 5.6._ ) ",
"/ 1.( Q _ ` ` ( K K ~ ` _ 8 < < , 2 5 % + @ O # # - : y p f E j f f p f p y : : = : : % X . $ & * < 8 0 0 H H H I P I H ~ ,.` ` ",
"{ ` ( Q ` ` ` _ ! ) ~ ) ` ( q 8 4 , < 8 6 2 2 , $ + # = # = = : - - - = # # # @ . O # # & < 1 < < 2 8 s P H P ! _ ! H 9 0 _ ` &.",
"` ` _ _ -.;.` ` _ ! ) ) ` ,.,.) 9 8 4 8 8 4 8 8 6 5 8 2 5 6 6 6 6 6 6 3 2 < ; * ; 5 2 2 2 < < 5 8 q I _ ( K ( -.{ ) ! 0 4 H _ 6.",
"! ) ,._ _ _ { 5.` ` ~ ( _ _ 5.5.` K G G G 8 G 0 H q q 5 5 0 6 6 6 q 0 q 6 6 8 5 9 6 5 2 4 8 q q K H ! ! ` _ ;.5.&.{ ) ! H H H ;.",
"K ( ;._ ` ` ;._ ` ;._ ;._ ( ( ` ` _ ) ( ! G 8 9 H H H 8 q H H 7 8 0 7 H 0 8 0 0 5 q 8 q q ! ! K ! ! ! ! 7.O.` ( ! ) ` O.K H H ( ",
"H H ) 5.} ;.;.) ! -._ ;.;.( H R _ 5.5.` H 4 F H ( ,._ ( _ _ ( ) ! e ! _ ( ! G H 8 0 8 P I ) ` ~ ` ( _ ` 9.q.,.( I K ) ,.( H F J ",
"H ( ) 5.5.:.) ( _ -.;.5.q.5._ ( _ 9.q.O.K H 9 H ! ` ;.` ,.{ } 5.,.` { &.5.,._ _ ! I q I ( _ ;.{ { &.` ;.:.q.,.( H ! I -.T H H -.",
"( -._ 9.6.&.:.5.5.;.;.:.8.5.5.( _ ,.9.;.` ( H H ( ` _ _ ) { ` 0.5.7.&.{ O.5.,.) ! ! T R I _ _ ;.} 5.5.:.5.q.q.0.:.` H H H ;.( _ ",
"-.5.) -.` { { _ ;.;.;.;.` 2.,.;._ ;.-._ ) { ) ` _ ,.( ! K 5.` g.5.5.{ ~ ` ` 9._ ) ` ,.O.H I ! _ ` 5.5.;.` ` ;.0.5.*._ ( _ ;.;.;.",
"5.-.K -._ ~ ) K H H I K ( ( P J H -.( ` ` { ` ) _ ;._ K e ` ` 7.9.5.9.` _ _ ,.` ~ _ ` _ ( _ H I q I ( K ( H R -.` _ ) _ ` ` 2.5.",
"6.,._ >.! K I q 9 G ( H I Q J J H _ ;._ _ :.{ { ` ( _ ( K _ / 9.5.{ 9.` ` ( ,.` ` _ 5.5.` ` ) H 9 G -.H G H H R H H ) _ ` e -.` ",
"5.-._ ( I 8 H I H J H K >.-.T J H ( _ ;.{ :.5.` ` ` ) ` ! _ ) 5.6.0.q.5.2.,.,.` -.I ! ` ;.:.` _ G 8 R I ( K ( Q G 9 q ! q 9 H ) ",
";.( ` -.( H I _ ) _ _ _ 2.0.9.,._ H ! ) ` _ ` ) ! ( ( _ { ;.` 5.8.5.9.5.9.9.` K J G H _ :.5.` ` _ ` ` ` _ { :.,.( H ! ! H G H ( ",
"K G _ _ _ ( _ _ _ _ { 5.9.q.5.5.;.( K _ :.{ _ ( K ( _ :.` _ ` ( 5.` ` _ O.9.;.H F 1 < H _ _ :.5.6.&.:.5.5.:.{ 5.( ! ( K ( _ H H ",
"G 8 ( :.,.( ) ! ( I ) 6.0.q.9.5.;._ K J K _ ( H K ( 5.,._ ! I T _ ( ( ) ` 5.;.H F 1 8 H ( _ 5.5.6.6.&.` ,.O._ ` ` ! ) ) 5.5.` ! ",
"H H ) 5.;.-.) ! T H ! { ` { ,.5.` { K H ( ` _ ( ! K _ ;.( I H T R ( -._ ) ` ;.( K J ( H ( ( ;._ 5.0.5.` ) ` ;.` ( I I ) { } 5.,.",
"_ _ ;.5.;.I K ( T H H ) ! ` _ ` ` ` K K _ _ ` ) _ _ ;._ ( ! ( _ ,.,.;.` ) ) _ _ H _ ,.;.( ! ! ( ;.6.5._ K ( ` &.9.,.` ` } { 8.9.",
"9.;.5.;.,.( ,.` ! ) ) ` ! ` { 5.;._ _ ) ` 9.` -.;.) ;.>._ ` ( 6.n.9.6.:._ _ H -._ 5.;.:.` ) ! -.2.5.:._ _ / ` 0.4.,.5.{ ` ~ &.5."
};
