/* XPM */
static char *result[] = {
/* columns rows colors chars-per-pixel */
"64 64 60 1 ",
"  c #181818",
". c #2C253E",
"X c #5A2818",
"o c #453F60",
"O c #9B3C1B",
"+ c #945816",
"@ c #885038",
"# c #DC6831",
"$ c #CD9217",
"% c #D08860",
"& c #CCAE76",
"* c #C7AE7B",
"= c #CCB37D",
"- c #D4B67C",
"; c #D8B77D",
": c #D6B87F",
"> c #DCBB7F",
", c #E1BD7E",
"< c #E1CD4E",
"1 c #CEB880",
"2 c #D2B780",
"3 c #D5BC83",
"4 c #DCBD82",
"5 c #D7BF88",
"6 c #E1BE82",
"7 c #DEC185",
"8 c #D4C48A",
"9 c #DDC48A",
"0 c #DEC98E",
"q c #DACB90",
"w c #E3C385",
"e c #E9C686",
"r c #EBC887",
"t c #E4C689",
"y c #E9C788",
"u c #E6C98C",
"i c #EBCC8C",
"p c #F1C984",
"a c #F1CD8C",
"s c #EED08F",
"d c #F2D18F",
"f c #E5CD91",
"g c #EBCE91",
"h c #F1CF90",
"j c #E5D294",
"k c #EDD293",
"l c #EDD997",
"z c #EDD698",
"x c #EEDA9A",
"c c #F3D392",
"v c #F8D693",
"b c #F5D996",
"n c #F9D996",
"m c #F1D698",
"M c #F8D098",
"N c #F4DB9A",
"B c #F9DC9B",
"V c #FDE09D",
"C c #F7EAA8",
"Z c #F8F0E0",
/* pixels */
"kuggkuutwwyyihavstw46t6ukvcftticNNvciuwkiguuwutgmhgugeiikkkwwwac",
"iuugfgiciwwycvVvvit6934wkvhuuiiwukNrewuuuyuwuywihcgiiksrzkdww,ii",
"ddciikriktwwddnvvdviu73tgiggkiuuutffiiggcut6tygkcNcarVcivsit>ejc",
"cvniu7wtjtwwlNccbdvnhguaiyugciitt70ticuukgytugghhcagiuttwrurucic",
"victt34794tclxicNmvvvvhceeuvmairiu9uikkiggiuiuguciccki7t>w7,ibad",
"cikut:>343wuNBzciurriichyttiacccmhgukkkdygyygttwwikcvr707,wwiiss",
"suifuwwittutcNgcetttw344wutiygrcvmkkkigw99wtuw67wikvvmsluieww,ki",
"ifijiriiakuugmzk9733:;-4wwtueuwjiikdkaki494ww742-7kiiiikdbdiiwlw",
"t74fueriiggiicggt0373>2;7tidpi:87tkiksku6ttutw4-;7zegdxzrddiiuki",
"994fwiriztigicccu983wrar9tuirw739uirwukirdkkuu3=--twkgxkidkkuuut",
"u9wuirisuuuiccmcu99uaddiueuiwww7uiirtkgiricbcuy3;-6tkuf0riis0iuk",
"kcactissauuucdmmit9ircaiusfsiewtfaaakkut7iwkkakew7tuyjtwteriuutk",
"chrgwkcbmcutyghnkuwuiguetugcmduttridlkuu4wwuiiiriiiaimtuweigtuhm",
"wugr7tuccmiitgizut4tikt44uwuvnieiaifuiutww,uuiewickrccauueraurii",
"64fttt7uiaiiiiui7wtuttt7w374ekiprluuuiitw,erit6wwtiihifwwyaaccit",
"6wfugt44iriiiig6>ttut70uiw>;:@@%%@@qikiuwwriruuw344uhiuferaihhit",
"uiufiuw7raariiuyiyrkuwugaew@%MMMMM%@@giuwwreikci,4wuciiggaieesuu",
"emcmkigiddarurirityicagzda@%MMMMMMM%@icciiituucci649iuccvccwtkir",
"wicvigigsr,jiierittwmkittw@MMMMMMMMM%@guiguuuutgiuitw8wwicitidii",
"irancgtiww>0tisriturbBit7w@MMMMMMM%%%@uutuukkt3tuccy3--4ygcimvbd",
"cpaackutw7>9uyiaaahgaNkt7,@MMMMM%@@%%@tytfgbBcu9imnkw4-3tssusadv",
"cvcagkgiww9t9ttccccavBVBdi@%MM%%@MM@% accgicnbctukmgrww49iuurdsm",
"zckriicueizg947uaakiirkxdd %%@@%M%M @ auggguikkuifuuiiiyestw>ddB",
"mvmruyzietiftt474wf6w30jei %M Z%MM@  eyw45w6tu934fugrariusuw,srm",
"hccigyzirgksiri7;304434044@MM Z%M%   >43-4494q553tuuuadauitw6urm",
"mnnmzkgruttikiyt>-047wwq32@MMM%%%@  w;4w4796fft4wtiiidciiuiueuec",
"ncccmcg4334rsciiiigiiackt4@%MM%@@  ft>4utuurzlNku4wiaiuywuwiiiiv",
"cufggmg61=&4iukvbdcccdsdyww@@@@  $+XutiuiuiczVcckt4iiaut4wucstii",
"iwuuici41*=3iuccvvaikkiiuwtyc   $##Xiywu09ecBBccgi47wt94wwkkuw77",
"9ufuyuzt44t6twiksBviwsiiuwwiaXXO$##OXjew9>waiakdiaw3tiutwtusu739",
"kzgrirut9yzgtwwtsckt6ursckui@OO++O##X9wtw>wytwiiyuw6uisuuikutw7i",
"Cmcctu4utkghii4ukcziuesNxmc@@ $$+X##O@kiwiyiwgacgutyimrifwujtuuv",
"Ncvcuiwkiiuttitimkiiiriikmc@@ +.+ OO%@ftweeyivdvit946t7tkvcfwyuc",
"fzbiiwuuituttrtiicgdrcsecki   $$+ MM%@gcuwwyavVvviw6934whmcuuiit",
"ttgueukgcut7tykkcNkirCcicgue> +++ h%% yakt6ycdbvvddau74tgiigkiru",
"t79uikuiggttiiihhcdiiutttrury...++%%@ 6tjtwtzNcccvnnagiiryukcugu",
"iu9tgkgaggyuiugucaccki7t447,+ooo..   44494wkxzecNvvvmvkdwiuvmiri",
"bkgukkkiggyigttwwtcmvr497www+$$oo. ++;34449uNBccitriaacdeuwuaccv",
"vmcggggy69wtu777wuknvvjziie+$<<$+ ++++tuytuuzNzki9ttw>37wuwiiiis",
"iizacazu494www3-;7kiiiskdnd+$<$$  ++++uiahuuimzkw733:=:>wwtieiwj",
"7tgacgzy,ttut94-;7keidxxrcd+$$$$  +++ ieiguuicggtq343>:>9tidpy:8",
"9ugrtygarskkut3---u6kixzaa+$<<$$ +++  iiktigiccct987wrie7wuury73",
"tgirtggieicnkui4;-4tkgj9y+$<<<<$       dguuichmcut9iaadiuuuieww7",
"uiaakzuuwttskakww7tuyft7w         actiigiguuccvbft9yacdiuiggiewt",
"uriskkkt3wwugiarsigaicuuwyigtigccaigwkkbmcuuuhcbguwuikuwtfidNstw",
"rdijuiutwe,ttuewakirckiiy6rhiigitugywtikccautgikuw7wujww6uwivvui",
"rlu0usut6wruuy6wwtirciutwraadcit64ftwt7tiiiuugit96tuut7wu373ecir",
"dit0uiiuwerrautw434ucuifrraiciit6wgtit77iiayiggw6wtutw9uiw>::uuv",
"iiuuukuiuwrygkciw3wuciughaawwjiruiujgtwwraaiiiuyyurhiwtjaew>=4uv",
"wrkiigaciiytuukvi649gucamdceekurwcccgigiaaayyyirutyicskcdarw444g",
"4tuurugiiiuuuutiiittw84wakiticcrwrccigigaresuierittwmsgwweriw456",
">7tcchuuwfukgu3tucdi4-34ykcicvvdsiavczttwt39uiaritiimBit96ylw424",
"4ueccstttkimndi9ucBs64->tigukadbcradckuuw7>tuugarcgahBzw447j064u",
"0gimvdahckicnmcuukmkrtw4wiuuraiNmvcasczeww999ttgacchmnVNdr945g6f",
"ggtfiraikiiuikkuufguiiiiuktw,dsBzvdriileeili94wuacciirzNcvuwugzg",
"cg6fieew43t7t0777ftiraieuktw,iibcmcyuukiruiutt64>7u6949feiiuiikh",
"vzujw,w3-49940554uiugaairwtt6irccamiiyziiudciie7-3u4243044yii>ui",
"kguq7;374546jf977tuuicviiuiiwutknbnczkkrf9wiciit3-09w7t03:,w>;7i",
"iwiu9>7utuuizNzku4wtaiuyttwiicivncczNci4333ikcriiiiiiadktw6,>:3t",
"44tiiuruiuickBccgt6tiaut6yukiuiuciugkkg61=&4uucmbddcccdctw9wetw3",
"3-taktwt0tevBVccgr496u944wccu797utuuicg41*-4tuccvbdiksiiiwwicvs7",
"44tcifrw93wasikciaw4tiuwwwuku747ttfutict44w4ttugaBviwsiit7wiadcs",
"iiccg9wt4>7yteuiyiw6uuaiiifutw6ikkgriyut7yziuwwwsmki>uusckiraabb",
"cuzgktkuereiwsicguuyimuifuujtiumCxcctu4ftchgii7kkciuuesVxkcapedc"
};
