/* XPM */
static char *_b3446fd17cb49ccbef9a8de6a3025a77BPvseTEJvs3FbO2[] = {
/* columns rows colors chars-per-pixel */
"64 64 15 1 ",
"  c None",
". c #885038",
"X c #D08860",
"o c #F8D098",
"O c #181818",
"+ c #F8F0E0",
"@ c #CD9217",
"# c #945816",
"$ c #5A2818",
"% c #DC6831",
"& c #9B3C1B",
"* c #2C253E",
"= c #453F60",
"- c #E1CD4E",
"; c white",
/* pixels */
"                                                                ",
"                                                                ",
"                                                                ",
"                                                                ",
"                                                                ",
"                                                                ",
"                                                                ",
"                                                                ",
"                                                                ",
"                                                                ",
"                                                                ",
"                                                                ",
"                                                                ",
"                                                                ",
"                                                                ",
"                             ..XX..                             ",
"                           .XoooooX..                           ",
"                          .XoooooooX.                           ",
"                          .oooooooooX.                          ",
"                          .oooooooXXX.                          ",
"                          .oooooX..XX.                          ",
"                          .XooXX.oo.XO                          ",
"                          OXX..XoXoO.O                          ",
"                          OXoO+Xoo.OO                           ",
"                          .ooO+XoXOOO                           ",
"                          .oooXXX.OO                            ",
"                          .XooX..OO                             ",
"                           ....OO@#$                            ",
"                             OOO@%%$                            ",
"                             $$&@%%&$                           ",
"                            .&&##&%%$                           ",
"                           ..O@@#$%%&.                          ",
"                           ..O#*#O&&X.                          ",
"                           OOO@@#OooX.                          ",
"                             O###OoXXO                          ",
"                             ***##XX.O                          ",
"                            #===**OOO                           ",
"                            #@@==*O##                           ",
"                           #@--@#O####                          ",
"                           #@-@@OO####                          ",
"                           #@@@@OO###O                          ",
"                          #@--@@O###OO                          ",
"                         #@----@OOOOOOO                         ",
"                         OOOOOOOOO                              ",
"                                                                ",
"                                                                ",
"                                                                ",
"                                                                ",
"                                                                ",
"                                                                ",
"                                                                ",
"                                                                ",
"                                                                ",
"                                                                ",
"                                                                ",
"                                                                ",
"                                                                ",
"                                                                ",
"                                                                ",
"                                                                ",
"                                                                ",
"                                                                ",
"                                                                ",
"                                                                "
};
