/* XPM */
static char *result[] = {
/* columns rows colors chars-per-pixel */
"64 64 14 1 ",
"  c #181818",
". c #2C253E",
"X c #5A2818",
"o c #453F60",
"O c #9B3C1B",
"+ c #945816",
"@ c #885038",
"# c #DC6831",
"$ c #CD9217",
"% c #D08860",
"& c #E1CD4E",
"* c #F8D098",
"= c #F8F0E0",
"- c None",
/* pixels */
"----------------------------------------------------------------",
"----------------------------------------------------------------",
"----------------------------------------------------------------",
"----------------------------------------------------------------",
"----------------------------------------------------------------",
"----------------------------------------------------------------",
"----------------------------------------------------------------",
"----------------------------------------------------------------",
"----------------------------------------------------------------",
"----------------------------------------------------------------",
"----------------------------------------------------------------",
"----------------------------------------------------------------",
"----------------------------------------------------------------",
"----------------------------------------------------------------",
"----------------------------------------------------------------",
"----------------------------------------------------------------",
"-----------------------------@@%%@@-----------------------------",
"---------------------------@%*****%@@---------------------------",
"--------------------------@%*******%@---------------------------",
"--------------------------@********%%@--------------------------",
"--------------------------@*******%%%@--------------------------",
"--------------------------@****%@@%%%@--------------------------",
"--------------------------@%**%@**@%% --------------------------",
"--------------------------@%@@%*%* @@ --------------------------",
"--------------------------@* =%**% @ ---------------------------",
"--------------------------@* =%*%@   ---------------------------",
"--------------------------@%%%%@@   ----------------------------",
"-------------------------- @%%  XOO-----------------------------",
"---------------------------  XX$&XX-----------------------------",
"--------------------------- X##O&&  ----------------------------",
"--------------------------- X##X$& X ---------------------------",
"-------------------------@@@O## $$ @@@--------------------------",
"-------------------------@*%O#O+$$  @@--------------------------",
"-------------------------@*%%O +++   ---------------------------",
"------------------------- %%@ .... -----------------------------",
"--------------------------   ..oo+------------------------------",
"-----------------------  -    .o+$$-----------------------------",
"----------------------- +  +  ++$$$$----------------------------",
"----------------------- +++++  +$$&&$ --------------------------",
"----------------------- +++++   +$&&$ --------------------------",
"------------------------ ++++ -- $&&$ --------------------------",
"------------------------- ++ --- $&$ ---------------------------",
"------------------------        $$$    -------------------------",
"-----------------------------       ----------------------------",
"----------------------------------------------------------------",
"----------------------------------------------------------------",
"----------------------------------------------------------------",
"----------------------------------------------------------------",
"----------------------------------------------------------------",
"----------------------------------------------------------------",
"----------------------------------------------------------------",
"----------------------------------------------------------------",
"----------------------------------------------------------------",
"----------------------------------------------------------------",
"----------------------------------------------------------------",
"----------------------------------------------------------------",
"----------------------------------------------------------------",
"----------------------------------------------------------------",
"----------------------------------------------------------------",
"----------------------------------------------------------------",
"----------------------------------------------------------------",
"----------------------------------------------------------------",
"----------------------------------------------------------------",
"----------------------------------------------------------------"
};
