/* XPM */
static char *result[] = {
/* columns rows colors chars-per-pixel */
"64 64 60 1 ",
"  c #181818",
". c #2C253E",
"X c #5A2818",
"o c #453F60",
"O c #9B3C1B",
"+ c #945816",
"@ c #885038",
"# c #DC6831",
"$ c #CD9217",
"% c #D08860",
"& c #CCAE76",
"* c #C7AE7B",
"= c #CCB37D",
"- c #D4B67C",
"; c #D8B77D",
": c #D6B87F",
"> c #DCBB7F",
", c #E1BD7E",
"< c #E1CD4E",
"1 c #CEB880",
"2 c #D2B780",
"3 c #D5BC83",
"4 c #DCBD82",
"5 c #D7BF88",
"6 c #E1BE82",
"7 c #DEC185",
"8 c #D4C48A",
"9 c #DDC48A",
"0 c #DEC98E",
"q c #DACB90",
"w c #E3C385",
"e c #E9C686",
"r c #EBC887",
"t c #E4C689",
"y c #E9C788",
"u c #E6C98C",
"i c #EBCC8C",
"p c #F1C984",
"a c #F1CD8C",
"s c #EED08F",
"d c #F2D18F",
"f c #E5CD91",
"g c #EBCE91",
"h c #F1CF90",
"j c #E5D294",
"k c #EDD293",
"l c #EDD997",
"z c #EDD698",
"x c #EEDA9A",
"c c #F3D392",
"v c #F8D693",
"b c #F5D996",
"n c #F9D996",
"m c #F1D698",
"M c #F8D098",
"N c #F4DB9A",
"B c #F9DC9B",
"V c #FDE09D",
"C c #F7EAA8",
"Z c #F8F0E0",
/* pixels */
"kuggkuutweryihavau946t6icMdkttudNNvauiwkihuttutgmhgiieiukkkwweac",
"iuuggkikuwwrcvVvcat6933wgbhuiiiyukNiiwuuuttturyigcgiizsrclse6,ug",
"ddciukrikt4wkdnvcdcitw3tiiigkit9u9fguigiggu6wuggcNhirVcicsiw;ykk",
"cvniu7wyztwwlNccbvvnhgygitukciiut79uikuiggrtgguhaciciutttrurucic",
"victt34794wkNxrcNvcvvchceiucbiiiiu9usksiggrugugucaccgi7t>w7,ibdd",
"cikut::343tiNNmciirrdichrwtahccvvgggkkkdggyyitwwttkvci797,wwrsss",
"suifuwwirtuugNkkttttw336wuturgrkcNkikigw69wtiw47wikbvbizuieww,ki",
"ifijiriiaguuiNzk7933;-;>4ttieuefiikckaki4949w743;7kiragzdbdiiwlw",
"t73furrriggurckgtq333:3;7uidru;87tkasiki6ttuw73-;9keidxzrddsiuku",
"996gtriiktighkccu977wiir99uiry738uiywikiedkkuu3--;u6jkxzidkkuuut",
"u9wuiiikguuichNhu99uaddayyuiewt7tiaitjiirikNcie3;-4tkiftrisi0iig",
"kcagwiikguuuchbbut9ipciiusisuewtuiaazkuu7itdkicew7tuift6wryiuutk",
"dcrgwkcnbkuuughNkuwiikuwtsikmdytyiislkgt>w7uiiiriiiagmiuwrigtigb",
"wugr7tuchbhutgghuw3tikww49wivburiaijiiuw9e,twiewiciihciuteyaurgr",
"64fuwtwuiaruugurwwtuut97y374wciarkfuusitw,eiit4wwriicufwwyrhccit",
"6wftgt44uiaiigg6>7tuu79uiw>;;@@%%@@0uiiuweeiiiuw334uhrugryahhigt",
"yiufguw7rpdriiuriyyggwugaew@@%MMMMM%@cgutwieikci64wucrgggaieefiu",
"emcmgigidddeuwriitricigcdrr@%MMMMMMM%@aciietuucci64wgucdvcctekir",
"wrcvigiasrejiirruuwwmkgwte@%MMMMMMMMM@uuiiiuuutgiuutw8wwikitidii",
"iidbcktuw7;9uiaruruibNgt9,@%%%MMMMMMM@guwfukgu3tichi3--4rgcimvvd",
"caaackutww3ttrgaaaggaNct>w@%%@@%MMMMM@trtggbncu9fbnk63;3tssukadv",
"cvdagkkrwwt99ttgdvchbnCNdi %@MM@%%MM%@hhkkucnnctugmkrr749iuuydsm",
"ccgyigzrwikg944gahkigrgNcd @ M%M%@@%% iuggigikkuuguuyairystw,ddN",
"mcbyuukgeugftt6447u6w49feiu  @MM%Z M% iw44w4t0954fufiaieusuw>srb",
"ccmigtkirfcgiir9;3t4333044y   %M%Z MM@44-3694q553uiiuidaiytt6irm",
"bvBczgkrgwtigirt:;99wwr9324w  @%%%MMM@474966fft4wtuiaaciiuriwuwc",
"ncccNcg6334rcciiiigiiickw4ww>  @@%MM%@4utuyuxNNku7wwaiuituwiiisv",
"cuuggzg61=&4uuhbbdcccddsrwt6X+$  @@@@tiuiuiczNcckwwtgauw>wukitii",
"ytfticg41*-3tuccvbaikkiiuwuiX##$   siuwyt9rcNBccgi37wu737wkki779",
"9uuuwgkt43t4ttiisBciwsiitw7XO##$OXXkkfew93whiakciaw4uiittwiku7>9",
"zkgiryut9ykgrwwtinki6urdckiX##O++OO@i97t464rwrgiriw6uuiuiuuuw97u",
"Cmccyu4ftcgcuuwfkckuuesNxm@O##X+$$ @@ukieiyiwgrcguttacifueuluyun",
"Nmvcuutkuguutttickiigriikk@%OO +.+ @@iut6rtygcavsu946t7tcncgttih",
"fkniiwuuittttrrugckiacirck@%MM +$$   kikuwwrhvVvdiw6933wgbhufiit",
"ttgueukaciu4tukccmkarNkici %%M +++ iusiikt6thcnvdcdau74tgiigkirt",
"t79uikuiggrwigigccsskuttti @%%++...su7wykt6tzNccnvvnhgrierugcuif",
"iu7ugkgiggryiugukacciuwt4,7   ..ooo+t737w3tkxmrbNvvvbdkcwuucbiur",
"mcgukkkhggyygutwwrkbciw97w7++ .oo$$+9;>343wgNNmcgrrihacarrwiaccb",
"bNkggggrt9ttu447wukvvvsxii++++ +$<<$+wtuytuykNkkt9ttw:36wutirgrc",
"uikamggy4449ww43;7kiiikkib++++  $$<$+rriaguugNkkw7333-:46tuueiwf",
"7ughghki>utut74-;9keisxxic +++  $$$$+ririguiicgktq344:3:9ugapt;8",
"9uirwugardkkuu3--;u6kixzrd  +++ $$<<$+eijtighhckt987wrae9wuirr43",
"tiiitgggeiknkru3-;4tsff0t       $<<<<$+dguuichbhu99gaadiuruueww9",
"uaaakcut4itskikew7turgt7werguu         kiguuchbbgt4iadditggguywt",
"uriklzgt4wwiigiriigaizitwyigwiivddugekknbkyuyghNguwuikuwtfiaNdrt",
"yasfuuutwe>ttueedkirkcaur6yhuifuwugywtudhbgutkgkut4wijt66uwicvut",
"rlftusuw6weuur6wwtriduutwraacciuw4utwu7ugaiifgur7wtuut9wu33wtcia",
"diwquiiiweyrautw434ucigfeyaacaiu6tgtit73urayiigw4wtut69uiw>;:uid",
"iiuuukigtwrrgkkiw47uciuggaieeiiriiufguwwraaiiiurrurhiwujaew;=4uv",
"wrkiigaciitwuukvi64wggvdvccwrjurwccmgigiaaarytirutyicihcdaew3w4u",
"6tuuruguuiuguutiguiw794wakiwidiiwrcbiggiareguirrittwckiwwergw496",
":9wchhuuwfucgt3uucai3-23ikcimvbdkrabcgtttw39uihritiibNkt96rzw424",
"7trccgrttggbncttfcnk6333wigukadvcracckutw7>tutgriaggaNgw3w7f065t",
"tgiccvhccgiknbctukzkyr67tiuurdsmcbaadkkiww999ttccchhvBCNdr945gwg",
"kgrfiyarggigikkuuggurarruktw,dsBcchyrglrwili947uacciiikNcvuwuckg",
"cfwqieew43w7t0974ftgraiyugu6,iinccNruikiruuitt67>6u6t49feiiuuikg",
"bktjw,w3;3w94q554ufiucaiuruw6urbccmigrkurgkciiww;3f44330>4eii,ui",
"cguf7;37444wjf954wuuahcaitiiwuekbNNckkcif9wihiit3-99wwt03;>e:;7i",
"gwuu9>7utuuulNmkuwwuiuiutttiihivvcccmcg4334ukciiiiiiuaakt7w,3;3t",
"43iuitruuuaccBccgt4waauw6tukiuriciugkmi41=&4uigvbddcchcstw9wytw3",
"4-taguwu9wycNNccgy49wuw46ykcu797uwfuicg41*-4tuccvbdiksiiu6trvbsw",
"34rcifew94whickcaiw49iutw6ugt739tuuuruku63w4ttugaBviwkiii97rpdcs",
"gygcg97w944rwifirg66uuauuugutw9yzkgiyruu9ykitwwtibki,uidckiadpbc",
"kgkkktkiereiwirvgutramifgyujuitbCmchuu4utccgii7kkciuueiNxzcrarcc"
};
