/* XPM */
static char *_c38b8daf56a4d56c3cca7916667ba4cnioZoiLE2aN06hew[] = {
/* columns rows colors chars-per-pixel */
"64 64 15 1 ",
"  c None",
". c #885038",
"X c #D08860",
"o c #F8D098",
"O c #181818",
"+ c #F8F0E0",
"@ c #5A2818",
"# c #945816",
"$ c #CD9217",
"% c #DC6831",
"& c #9B3C1B",
"* c #2C253E",
"= c #453F60",
"- c #E1CD4E",
"; c white",
/* pixels */
"                                                                ",
"                                                                ",
"                                                                ",
"                                                                ",
"                                                                ",
"                                                                ",
"                                                                ",
"                                                                ",
"                                                                ",
"                                                                ",
"                                                                ",
"                                                                ",
"                                                                ",
"                                                                ",
"                                                                ",
"                             ..XX..                             ",
"                           ..XoooooX.                           ",
"                           .XoooooooX.                          ",
"                          .Xooooooooo.                          ",
"                          .XXXooooooo.                          ",
"                          .XX..Xooooo.                          ",
"                          OX.oo.XXooX.                          ",
"                          O.OoXoX..XXO                          ",
"                           OO.ooX+OoXO                          ",
"                           OOOXoX+Ooo.                          ",
"                            OO.XXXooo.                          ",
"                             OO..XooX.                          ",
"                            @#$OO....                           ",
"                            @%%$OOO                             ",
"                           @&%%$&@@                             ",
"                           @%%&##&&.                            ",
"                          .&%%@#$$O..                           ",
"                          .X&&O#*#O..                           ",
"                          .XooO#$$OOO                           ",
"                          OXXoO###O                             ",
"                          O.XX##***                             ",
"                           OOO**===#                            ",
"                           ##O*==$$#                            ",
"                          ####O#$--$#                           ",
"                          ####OO$$-$#                           ",
"                          O###OO$$$$#                           ",
"                          OO###O$$--$#                          ",
"                         OOOOOOO$----$#                         ",
"                              OOOOOOOOO                         ",
"                                                                ",
"                                                                ",
"                                                                ",
"                                                                ",
"                                                                ",
"                                                                ",
"                                                                ",
"                                                                ",
"                                                                ",
"                                                                ",
"                                                                ",
"                                                                ",
"                                                                ",
"                                                                ",
"                                                                ",
"                                                                ",
"                                                                ",
"                                                                ",
"                                                                ",
"                                                                "
};
