/* XPM */
static char *result[] = {
/* columns rows colors chars-per-pixel */
"64 64 60 1 ",
"  c #181818",
". c #2C253E",
"X c #5A2818",
"o c #453F60",
"O c #9B3C1B",
"+ c #945816",
"@ c #885038",
"# c #DC6831",
"$ c #CD9217",
"% c #D08860",
"& c #CCAE76",
"* c #C7AE7B",
"= c #CCB37D",
"- c #D4B67C",
"; c #D8B77D",
": c #D6B87F",
"> c #DCBB7F",
", c #E1BD7E",
"< c #E1CD4E",
"1 c #CEB880",
"2 c #D2B780",
"3 c #D5BC83",
"4 c #DCBD82",
"5 c #D7BF88",
"6 c #E1BE82",
"7 c #DEC185",
"8 c #D4C48A",
"9 c #DDC48A",
"0 c #DEC98E",
"q c #DACB90",
"w c #E3C385",
"e c #E9C686",
"r c #EBC887",
"t c #E4C689",
"y c #E9C788",
"u c #E6C98C",
"i c #EBCC8C",
"p c #F1C984",
"a c #F1CD8C",
"s c #EED08F",
"d c #F2D18F",
"f c #E5CD91",
"g c #EBCE91",
"h c #F1CF90",
"j c #E5D294",
"k c #EDD293",
"l c #EDD997",
"z c #EDD698",
"x c #EEDA9A",
"c c #F3D392",
"v c #F8D693",
"b c #F5D996",
"n c #F9D996",
"m c #F1D698",
"M c #F8D098",
"N c #F4DB9A",
"B c #F9DC9B",
"V c #FDE09D",
"C c #F7EAA8",
"Z c #F8F0E0",
/* pixels */
"kuggkuutweryihavdtw46t4umvcf9ticNNvcrutkgiuututgmggugeiikkcwwwac",
"iuuggkikuwwrcvVvcit6934wgvhuiiiwukNrrwuuiyuwwywihcgaacsrklat6,ug",
"ddciukrikt4wkdnvcdciu73rgiggkie0utffiuggcuu6trfhaNhhrxcacdiw>ykk",
"cvniu7wyztwwlNccvvvnhguirrugciitt70trcuuggttggggccakgutwtrurycsc",
"victt34794tkNxrcNvcvvvgcwrucvgiiiu9ukcgiggrugugukaccgi793,7,ubdd",
"cikut::343tuNNmciiriaichruwghccvbhgukkicggyyitwwwrkbvr7977wwiiss",
"suifuwwituuycNkkutttw344wutuigrgcNkgkikw69wtuw69wtkvvciziirwr,kr",
"ifijiriiaguuimzk7733:-;>6tuyeuefuikckaki4949ww3-2wzirckzindirwju",
"t74furryrggurckgwq373:4-7uidpu;87ukhkiku6utuw94-26zyicxziddsiyku",
"994fyyiiktighccct984erirw9tiry>87uurwikarikciu4=--u6kixzadkkuuut",
"u9wuirikguuuchmcu90iahdiuuuswww7uiirwjiirikNkur3;;4ukuf0risi0iuk",
"kcacwusigiuuchbbg97ircaiususiewtfaaazcutwtrscikewwwurjtwweyiuutk",
"ccrgwkknbkiuughNkuwuikiwwgikmdyttaiklcuu3wwuukdeiiiaimiywrigtigb",
"wugrwticccittgicuw7wukt67twivnuyraifuiuuwe,twiweikgrcgiuu6rairgt",
"64ftttwuiaiiuggtwwtuutt7w774wmraeNuuuiiw7weiut6wwtuahgutwraaccit",
"6wftft44uiaiiig647tut79uiw:-;uicau7qukiuwwepautw346uhrfgyraicait",
"uiufgtwwrrdriiiriuigiwufaew:%%%%@@uuuhiurwrrskci64wukiuggaawefiu",
"ebccgggiddarieriitrihagcdae%%MMMM%@uughcgurtuukci649igbdccktrkie",
"wicbgggisrejiirrrtwwNcgwww%%MMMMMM%@rifuuguuuutggiitw56wacuridii",
"irankktyw7>9tuiruuuicNgtt6%%MMMMMM%@dkguwfukgt4tucgr3-24rgciNvvd",
"cpahckuuww:9fygaahagaNkt36@%MMMMMM%@hhtrtggbncu9icnk6334wskukadv",
"mvcaakgrwttt9wwgacchbnCNa@@%%MMMMM%@%vhacgghnnctukmkrr447iuuyiab",
"kcirigzrwukg49wgacciurgNc%@@%%MMM%%%%raukiugikkuuffurairukww,dsN",
"mcmruukgryfgwt444wf6w40fi% @@@%%@@%%%erw45w4t0974fuiiaurisuw>sin",
"ccmigtkirukciir9-3t443404@ @Z %% Z@%@,73;4499q534tiiuaciiutt6urN",
"vnBcmgkrgtwigirt:;09www032  Z M% Z@@7-3w4446ff977tuuaaciiuriwuec",
"ncccmmg6333rcciriruiiidkt76 %MMM%%@fw>6utuyuzNNku7wriiurwteiiiiv",
"cuuggzg61=&7uucbnccccdcstw9X %MM%@X+utiuguiczNccgt4tcaut4wukiiti",
"uttuucg4=*-3uuccvvigksisrw+OX @@ O<$Xiwu09rcNBccki37wt947ekkuw97",
"wufurggu74t6twigcNvrwkiiuw$+OOOO#<$#Xfew74whiakciaw4tuiwwwuku739",
"zkgitruw7ukgtwwwiNku6uricXO$+$$<<+O##Xwtw46ywrgiriw6uiiuiugut77i",
"Cmccyu4ftkcgiuwfkckiueiV @OX o$$o XO#Xkiwyriwgrcguttamiufrujuruv",
"Nzvciutkuguutwtgkcgigrii @@@ $<<+ %%OXft6rtygcdcsuw44u7tkvhgtuig",
"fkniiwuuitutrieugcgircii @@ +o$. hM%@ gcfw6rhvVvdit6744whbcuuiit",
"ttfgeikicut4tukkcmcsrVkac   +$$+ MMM grikt6thvnvcccru73tgiigkuru",
"t79wikuiggrtiuikccisjutwrru oo.. MMM w6tktwwzNdcbvnnagiirtukciiu",
"iu9tkkgiggiigugicaccdi7w447..oo.o.  w444t3wgxmrcbvvvvcgcwiucbiur",
"nkgukgkhigyritwwwtkvci794w+$$...o$+ 023443tgNNmcgrruaavaeiwihccb",
"cNkggggrw96uu777wuknvvkzui $<<+.$$+ rwtiywuykNckttttt347wttiiirc",
"iicamhgu445www3;;7kiisuzan $<$+ +++ upiuaguugNzzw5432-;:wttueiwf",
"7ughhhku>ttutt3;;7kegsxxrcd $$$ ++ fiereiguurckgwq374:3;7uidri:8",
"7ugrwughedkkut:--;twkixzacc+$$$   4fteiiktiggccku054wriew9tirw43",
"uiirtkgiwsknkiu7-;4tsff0ti+$<<$ utwfiiiaguiichccu90iaddatiugwww7",
"fuaazkuywtrskikww7tuigw76r+<<<+ hcagtikkifuuchbbut4iadiiuigiieet",
"uriszkft4wwugidesiiaicuutr+++  nccugekknbkyuughNkuwuisuwtiiiNdtw",
"yasjuiutwe>utuewakirkdgir6rgirjuwygywtukcbhuuggcuw7wijtww0yivbur",
"rlu0usiw66eiut,wwtiikiutwraaccit64ftwt7tiaiuuguy7wtuutt7w774ekia",
"di7fuiiuwerrauuw434uhiiferaadiiw6wfuit77urargig667tuu49uuw3;;uic",
"iiuuggiiuwrrgkki64wuciiggratesuyiiufgtwtpaarriiiruigiwugirw;=4tv",
"wrkiuiaciirtuucci449guvdbccwwlirwccmgigicaarutrrutricigccaew3w4g",
"6tuuiuguiiuuuutgigiww77wakiridsiwrhbigiiirefuieruuwwNkgtwergw45w",
":9wcagguwfukgt3tucai3-23ugcimvvdsiabcktuww49uideuyyicNit96rzw424",
"7trccgrwuggbncu9fvnk6424wggikadvcradckutw74wtugaachihNzw44wf9w3u",
"tgiccvhccgicnvctukzkir44tuutiaiNcbcadkkiww009ttgdchhbBVBdr957f4g",
"kgrfiraigggugkkgufgueiiriktw,diNkbariikiwiki947iahciurkxvduwuhkg",
"cfwqiee643w6tq744ftgrairuiuw,iinmcmruikiruiutu44,4f6w60friuuiikc",
"bztjw,73-3996q554uiuihcrrwtt6urchcmigrkirucciuww;3u4233037eii,ui",
"cguu7-474446fqt77tuuicciiuiiturkbnBczgkrf9wikhit3-09wwt03;>w:;7i",
"utuuw37utuuixmNgu4wtiiurttwiighvncccmcg9334idcuiriiiiadkww4w3;3w",
"6:uiiuruiuiccBcmgwwuaaut4rukiiuuciuucbu41=&4uucvncdcccdcuwwwruw3",
"4-tkiiwtt9rvNNccgi446ut44rkcu697fwfuucg42*-4uuccvndikkiiuwtrvvs7",
"44tcgfte74waidkcihw4tiutwwugu747wtuuruzy4494twugiNviwiiir7wipdck",
"iugbg97w736twifiyyw6uuiuuufytw9yzkgiyruw4ukgtwwwgcki,uikmkridanm",
"cucggtkieieiwiivguurimiifuuzuutbCmccyu4ftcchuiwjkcgiuriNxkbppedk"
};
