/* XPM */
static char *_8bd7ad7f1c44163d3e9389c5e4e9259e8pdl0yn2VJsVOer[] = {
/* columns rows colors chars-per-pixel */
"64 64 15 1 ",
"  c None",
". c #D08860",
"X c #885038",
"o c #F8D098",
"O c #181818",
"+ c #F8F0E0",
"@ c #5A2818",
"# c #945816",
"$ c #9B3C1B",
"% c #E1CD4E",
"& c #CD9217",
"* c #DC6831",
"= c #453F60",
"- c #2C253E",
"; c white",
/* pixels */
"                                                                ",
"                                                                ",
"                                                                ",
"                                                                ",
"                                                                ",
"                                                                ",
"                                                                ",
"                                                                ",
"                                                                ",
"                                                                ",
"                                                                ",
"                                                                ",
"                                                                ",
"                                                                ",
"                                                                ",
"                                                                ",
"                            ....XX                              ",
"                           ..oooo.X                             ",
"                          ..oooooo.X                            ",
"                          ..oooooo.X                            ",
"                          X.oooooo.X                            ",
"                         XX..ooooo.X.                           ",
"                         .XX..ooo....                           ",
"                         .OXXX..XX...                           ",
"                         XOX+O..O+X.X                           ",
"                          OO+Oo.O+XX                            ",
"                           O.ooo..X                             ",
"                           @O.oo.X@#                            ",
"                          #$@OXXO$%&@                           ",
"                          &#$$$$*%&*@                           ",
"                         @$&#&&%%#$**@                          ",
"                        OX$@O=&&=O@$*@                          ",
"                        OXXXO&%%#O..$@                          ",
"                        OXXO#=&-Ooo.XO                          ",
"                         OOO#&&#OoooO                           ",
"                           O==--OoooO                           ",
"                           --==-=-OO                            ",
"                          #&&---=&#O                            ",
"                          O&%%#-&&#O                            ",
"                          O&%&#O###O                            ",
"                           O&&&O##O                             ",
"                           #&&&OOO                              ",
"                          #&%%&O                                ",
"                          #%%%#O                                ",
"                          ###OO                                 ",
"                                                                ",
"                                                                ",
"                                                                ",
"                                                                ",
"                                                                ",
"                                                                ",
"                                                                ",
"                                                                ",
"                                                                ",
"                                                                ",
"                                                                ",
"                                                                ",
"                                                                ",
"                                                                ",
"                                                                ",
"                                                                ",
"                                                                ",
"                                                                ",
"                                                                "
};
