/* XPM */
static char *result[] = {
/* columns rows colors chars-per-pixel */
"64 64 59 1 ",
"  c #181818",
". c #2C253E",
"X c #5A2818",
"o c #453F60",
"O c #9B3C1B",
"+ c #945816",
"@ c #885038",
"# c #DC6831",
"$ c #CD9217",
"% c #D08860",
"& c #CCAE76",
"* c #C7AE7B",
"= c #CCB37D",
"- c #D4B57C",
"; c #D8B77D",
": c #D6B87F",
"> c #DCBB7F",
", c #E1BD7E",
"< c #E1CD4E",
"1 c #CEB880",
"2 c #D2B780",
"3 c #D5BC83",
"4 c #DCBD82",
"5 c #D7BF88",
"6 c #E1BE82",
"7 c #DEC185",
"8 c #D4C48A",
"9 c #DDC48A",
"0 c #DEC98E",
"q c #DACB90",
"w c #E3C385",
"e c #E9C686",
"r c #EBC887",
"t c #E4C689",
"y c #E9C788",
"u c #E6C98C",
"i c #EBCC8C",
"p c #F1C984",
"a c #F1CD8C",
"s c #EED08F",
"d c #F2D18F",
"f c #E5CD91",
"g c #EBCE91",
"h c #F1CF90",
"j c #E4D294",
"k c #EDD293",
"l c #EDD997",
"z c #EDD698",
"x c #EEDA9A",
"c c #F3D392",
"v c #F8D693",
"b c #F5D996",
"n c #F9D996",
"m c #F1D698",
"M c #F8D098",
"N c #F4DB9A",
"B c #F9DC9B",
"V c #FDE09D",
"C c #F7EAA8",
/* pixels */
"kuggkiut6yyiihavitw>6u4ucvcg9uidNNvciutkgiuttutgmhguieiukkcwwwac",
"iuugfkikuw6edvVvviu6734wkmhuiiitukNiewutiwuttywigcgarzsrclie,,ug",
"ddciusrakt7tddndvddiu74tgiigkiu0utfuiigscgu6tughcbhhiVcicsit>ekk",
"cvniu7wtztwwlNcbmvvvhguiiyugdiitt70ticuuggwwugghhcciiutttruiucic",
"victt34793wkNlicNvvvvdkcerucviirit9uiksiggriiuiukaccki7t>w7,icdd",
"cikut::444tuNNmciyiidicaytticccvmcifkkkkugurkttwtykvvr797,wwrsss",
"suifuwtuytuukNgcttttt>47wutiygikvbcikiiyw9wtuw47wukvvvuluiewe,ki",
"ifijiriiaguuiNzkw833:-;>6ttueueuiikkciki4949w743;4ziiiszsvdiiwju",
"t54furruiguiiccgt0373;::7uidru;89tgasiki6utut74-;tkeidxxiddsuiku",
"794ftirikyggakcku037wiie79tiee488igrtikirikcut4=-2u6kgxzidckuutt",
"i9wuiridguuicabcu99uacdauutiet77tiiytjiirikNkit4--4ukuftrsiu0iik",
"kcaceussugutccmmut9irdiiusssueetuaaakkuu7uescikewwtuyjt6weesuutk",
"cciitskbmcutuhhNkuwiiiuttigdNdetuiislcit4w7uiiaeiiiaimiuwrigtigm",
"wugr7tikdmgttgicuw77iktww9tivvueyakuuiutte,tuiewikiihciuu6raurii",
"64fttu7tiaiiuguytwtuut97t444ekiirlu0uiit4,eiit,wwtiihiutwraacvit",
"6tutit44iaaiiigw>7tut79uiw>--uicait0ukiuweriiutw444ihugferaaggit",
"uiifiuw7rdariiiteiiiiwukaew>-4%%@@@@fgigtwieskci,4wukiugiaieeuiu",
"emkNkiiiddaeueiiiteidikkdie,4%%MMMM%@gaciietuukcu649iivdvcdtezir",
"wiaviggisr,jiirrtttwbkitteis%%MMMMMM%@uuiiiuuutgiuitt87wikitiksr",
"iidvcguuww>9tisritiibNit77el%%MMMMMM%@guwfukgt3tuccy4=-4igcibvvd",
"cradckut6w:ttiiiaahgaNct4wwu@%MMMMMM%@tttfgbncttgvBc64;>tsiukadv",
"cvcahkkywwt09ttccccamnCNdi7%@%MMMMMM%@@acgicBncttjmgrt777iuuesib",
"kmkragzytiki777uaaciurgNddi%@%%MMMMM%@%iggguikkiugfuearruktw,ddV",
"cvcyuukiiuugtt6447f6w40fiiu@@%%%%MM%%@%t43t6w0954ftgiaitusuw,iil",
"cccifykiiucdiir7;3t4;34045y @@%%%%%%@ @4-44t90534uiiuddiiutw6irb",
"mnBczkkiutwikiit:;09twtq3;>6 @@%%%%@  444744fq077tuuaadiieiitttc",
"ncccccg6335ickiiiiiiiickt4ww  @%%%@  :wututillNku4wtiiuitttiiiiv",
"cufgkzg61=&>uikcccccvdiset7 +OXXXXX iutuiuicmVhcktwthauw4tiiitii",
"iwftucg4=*-4tuccvvaikkisiw X+$O##O+$Xitt99rvBBccii477u947tkki777",
"tttutgkt45t6ttiisBcitsiii4 OX$$$$$$$#Xew94waiakcid74tiitwwisu749",
"zkkiiitt7ikgtwwtsbki,urik XOX+$<<<$+#Xwtw46ewyuiruw4uiiiiufuu77u",
"Cmccyt4utckgiuwukckuueiVl %XX+$<<$+O##Xiwyiiwgacgutyiciufyijteib",
"Nmvcuutkiiuttyuizciiieiik @@  +$$$+XOOXw6ryyicdvit944twukvcg9yih",
"fkbiiwuuituttrtiicgiicsrak  +$<<<<$X%%@kuwtyhvVvvit6943wamcuuiit",
"utfieukacut7tikkcNkspVkivsu +$<<<$+%%M@akt6yhvbvdddau74tgiigkiit",
"t79ticuuggetiuighcssfutttri  .++++.%MM@tjtwwzNdcbvvnhgtiryukciiu",
"iu9ukkgagkiusugicaccsi7t477,....... @@@4t3wklNucNvvvcdkcwiucciii",
"ccgukgkguguritt7wtcmvi7977ww+.oo.+++ ;;443tuNBmciyiidacaeytikcvd",
"mNkgkggy696uu779tekndvgziie,++$$+++  wtuyuuukNkki9ttw:44wutiiirs",
"uikachgu694ww74;-7kiisgldvdi+$<<+   iriirhuugNkkw7333-;46ttueiwj",
"7igachku,ttut9>=;7kegsxlrdv +$$$$ >uireeiguuickgtq55>;:-7uidpi;8",
"5uirwugarskkut4=-;twkixzid +$$<<$ 4fteiiktigiccct947wiaew9uirt43",
"tiiitgggeicbkit4--4tkgjtta +$<<<$ tuiiidguuichmcu99iaddauuugtww7",
"iiaakcuu7rtskakewwtutg97wey +$<<$ akyukkiguucdvmut7iidiitigiiewt",
"tiiszkft>wwuuiarsiiaikittyig      igegkbmcuuughNkutuisuttiisNdtt",
"rdijuiutte,tyittakircciiy6rairkuwugywtiscciuugicut77ijtw7ttivvit",
"rlu0usit66eyut,wwtiiciutwraaccit64uttu7tiaiiugit76tuutt7u474elir",
"di9uuiiuwtriaitt434uhuijrraiciitwtftut47iiayiigw,wtuu49uuw>-;uid",
"iiuiukiuuwiwikcs64wuciuggaietsuriiifiuwwpaaiiiititiiiwukiyw;=4um",
"wekuuidciiywuucci449ggcavcdtekureckbgigidaptywiiitiivigkcaew474i",
"4tuuiiuiiiuguutiiiuw794wakitisiiwrhmiguaiiekiirrittwNiutweist47w",
":wtcahguwfukgt3uucdi4=34ykciNvvdiidmcktuww:9uiariytibNat96ekw424",
"7ttmviyttggmndu9ucBcw>;4tigukadvciiavkuuw7>tutiaidhihNkt46wf965t",
"tgicdvadckikBvcttklket74tiuurasbbvdascktwt079ttkddcamBVNdi755gtu",
"kgygiaiikgiiikkuufuiriiyuktw,dsBkvdriilrtiks777uacciiikNdvu7ukki",
"cfwqiee645w7t0977fuiiaieuiuw,iibcmcyuukieiuutt67>7u6w49jriiuiikc",
"bkujt>7>-4w940834uiiuddaiett,irbcccigikiyucciitw;3u42330>4eiu,us",
"cfuu7-47>544jqt94tuuicciitiitutkmbBmkkkifttisiut3-09wwt03:>t>-8i",
"gtuf7>7utiuilNmgu7wtiuiywttiiiivncvkNci7314icciiyiiiiadkt>w,4;>w",
"4:tiiueiiticcBdmgwwtaaut6tukiiuiciuikki43*&4uuhvbddcccdctt7euu44",
"4-tssuttt9evNBccgi47wt774tcku777u9uiicg42*-4uuccvbdissiiiwtidddt",
"44tcifew94wagakcaa749iitwwuiu7>9ttuutict6394ttuidBvitsuit77radcs",
"iikmg94w746ywtfiyuw6uiauiuiutw7izkgiiyut7ukitwwtgcki,uuickiiaavb",
"cucigukiwiritgrvguueimiufuuzutimCmdctu4ftccgii7kkcktursVxkcaprdk"
};
