/* XPM */
static char *c004497c97b64622f70efd1ab68ddac2yKvlIgKo09IGzPKj[] = {
/* columns rows colors chars-per-pixel */
"64 64 14 1 ",
"  c None",
". c #D08860",
"X c #885038",
"o c #F8D098",
"O c #181818",
"+ c #945816",
"@ c #9B3C1B",
"# c #5A2818",
"$ c #CD9217",
"% c #DC6831",
"& c #E1CD4E",
"* c #2C253E",
"= c #453F60",
"- c white",
/* pixels */
"                                                                ",
"                                                                ",
"                                                                ",
"                                                                ",
"                                                                ",
"                                                                ",
"                                                                ",
"                                                                ",
"                                                                ",
"                                                                ",
"                                                                ",
"                                                                ",
"                                                                ",
"                                                                ",
"                                                                ",
"                                                                ",
"                              ..XXXX                            ",
"                             ..oooo.X                           ",
"                            ..oooooo.X                          ",
"                            ..oooooo.X                          ",
"                            X.oooooo.X                          ",
"                           .X.oooooo.XX                         ",
"                           .X..ooooo.X.                         ",
"                           XX....oo..X.                         ",
"                           OXX......XOX                         ",
"                            OXX....XOO                          ",
"                            OOX...XOO                           ",
"                           O+@#####O                            ",
"                          O#+$@%%@+$#                           ",
"                          O@#$$$$$$$%#                          ",
"                         O#@#+$&&&$+%#                          ",
"                         O.##+$&&$+@%%#                         ",
"                         OXXOO+$$$+#@@#                         ",
"                          OO+$&&&&$#..X                         ",
"                           O+$&&&$+..oX                         ",
"                           OO*++++*.ooX                         ",
"                            *******OXXX                         ",
"                            +*==*+++O                           ",
"                            ++$$+++OO                           ",
"                            +$&&+OOO                            ",
"                           O+$$$$O                              ",
"                          O+$$&&$O                              ",
"                          O+$&&&$O                              ",
"                           O+$&&$O                              ",
"                            OOOOOO                              ",
"                                                                ",
"                                                                ",
"                                                                ",
"                                                                ",
"                                                                ",
"                                                                ",
"                                                                ",
"                                                                ",
"                                                                ",
"                                                                ",
"                                                                ",
"                                                                ",
"                                                                ",
"                                                                ",
"                                                                ",
"                                                                ",
"                                                                ",
"                                                                ",
"                                                                "
};
