/* XPM */
static char *_e9cad1da003457299db2828dcedcb585Xw1UNx4TBe9padb[] = {
/* columns rows colors chars-per-pixel */
"64 64 239 2 ",
"   c #3D3107",
".  c #2C3919",
"X  c #333C1C",
"o  c #3B3C1D",
"O  c #363916",
"+  c #353C21",
"@  c #3B3C22",
"#  c #44350E",
"$  c #3C431E",
"%  c #37461B",
"&  c #2A4620",
"*  c #354423",
"=  c #3B4424",
"-  c #354A24",
";  c #3C4A25",
":  c #3C4529",
">  c #3D4C2A",
",  c #354F2C",
"<  c #3C532A",
"1  c #3C5729",
"2  c #3E5632",
"3  c #3F6534",
"4  c #56430A",
"5  c #454515",
"6  c #4F4B16",
"7  c #67581C",
"8  c #434324",
"9  c #424B25",
"0  c #4A4A24",
"q  c #434529",
"w  c #444B2C",
"e  c #4B4C2C",
"r  c #4B4324",
"t  c #534B2B",
"y  c #584E27",
"u  c #44532C",
"i  c #4B532C",
"p  c #445A2C",
"a  c #465529",
"s  c #53532D",
"d  c #5B552B",
"f  c #434D32",
"g  c #4C4D33",
"h  c #455333",
"j  c #4C5332",
"k  c #435A33",
"l  c #4B5B34",
"z  c #4E5D3B",
"x  c #4B5439",
"c  c #535C33",
"v  c #595B34",
"b  c #535C3A",
"n  c #575637",
"m  c #504A30",
"M  c #635A2D",
"N  c #695B28",
"B  c #645C35",
"V  c #675B34",
"C  c #614E2D",
"Z  c #4B6234",
"A  c #4C633B",
"S  c #4B6B3C",
"D  c #466636",
"F  c #53643B",
"G  c #5C643B",
"H  c #546A3D",
"J  c #586538",
"K  c #4C713E",
"L  c #55753C",
"P  c #55632D",
"I  c #65672A",
"U  c #64643B",
"Y  c #6B623A",
"T  c #676838",
"R  c #776A37",
"E  c #687338",
"W  c #73793B",
"Q  c #716A2D",
"!  c #545E42",
"~  c #556242",
"^  c #5C6A43",
"/  c #586945",
"(  c #4E7440",
")  c #577544",
"_  c #4F6840",
"`  c #6C6B44",
"'  c #636843",
"]  c #786C44",
"[  c #6D7142",
"{  c #677648",
"}  c #7B7443",
"|  c #74764B",
" . c #7B734A",
".. c #7B7947",
"X. c #7C7C52",
"o. c #776E51",
"O. c #826A3A",
"+. c #836F47",
"@. c #8C7D4A",
"#. c #867748",
"$. c #957C4B",
"%. c #8B7D53",
"&. c #867B56",
"*. c #947F50",
"=. c #698246",
"-. c #768549",
";. c #7A8253",
":. c #778E51",
">. c #89874B",
",. c #96844D",
"<. c #88924D",
"1. c #828352",
"2. c #8C8B53",
"3. c #8C845C",
"4. c #888859",
"5. c #968857",
"6. c #8D9359",
"7. c #999458",
"8. c #A58D57",
"9. c #A49257",
"0. c #AB945D",
"q. c #B19F5F",
"w. c #9BA05D",
"e. c #8D8E61",
"r. c #9B9665",
"t. c #958F63",
"y. c #A49864",
"u. c #AE9767",
"i. c #9CA770",
"p. c #ADA46D",
"a. c #A7A769",
"s. c #B6A369",
"d. c #ABA875",
"f. c #B3A474",
"g. c #BAA474",
"h. c #B4AC74",
"j. c #BDAB7C",
"k. c #B9A879",
"l. c #BDB27D",
"z. c #B6B57B",
"x. c #AEB271",
"c. c #C2A56A",
"v. c #C3AC74",
"b. c #C4AD7B",
"n. c #CBAE7C",
"m. c #C1A576",
"M. c #C4B37B",
"N. c #CCB47C",
"B. c #CCB97D",
"V. c #C9B679",
"C. c #D3B57B",
"Z. c #D5BA7D",
"A. c #DABC7E",
"S. c #D5B579",
"D. c #E0BE7F",
"F. c #DBC07F",
"G. c #E0C37F",
"H. c #BAAB81",
"J. c #B4B282",
"K. c #BCB684",
"L. c #C4AF81",
"P. c #C4B482",
"I. c #CBB682",
"U. c #C5BC84",
"Y. c #CCBD83",
"T. c #CBB78B",
"R. c #D4B681",
"E. c #D4BC84",
"W. c #DCBD82",
"Q. c #D4BC8A",
"!. c #DABE89",
"~. c #D2B788",
"^. c #E2BE82",
"/. c #BCC284",
"(. c #CAC485",
"). c #D5C285",
"_. c #DDC284",
"`. c #D5C48A",
"'. c #DDC48A",
"]. c #DDCB8C",
"[. c #D6C98A",
"{. c #DCC795",
"}. c #DDCB92",
"|. c #D5CA93",
" X c #D9D494",
".X c #C8C898",
"XX c #E3C485",
"oX c #E9C687",
"OX c #E5C986",
"+X c #EBC985",
"@X c #E4C689",
"#X c #E9C68A",
"$X c #E6CA8B",
"%X c #E9CA8A",
"&X c #E9C98A",
"*X c #E8CA8C",
"=X c #E9CA8D",
"-X c #EBCC8C",
";X c #EACC8E",
":X c #EACE8E",
">X c #ECCE8E",
",X c #EDCD8E",
"<X c #EBCB8D",
"1X c #F1CD8E",
"2X c #F0CB87",
"3X c #ECD18F",
"4X c #E3D08E",
"5X c #F3D28C",
"6X c #E3C690",
"7X c #E5CB92",
"8X c #EBCD91",
"9X c #ECCE90",
"0X c #EDCE91",
"qX c #ECCD92",
"wX c #EECF98",
"eX c #F2CE92",
"rX c #E3D294",
"tX c #EFD090",
"yX c #EFD193",
"uX c #EDD192",
"iX c #EDD293",
"pX c #ECD49A",
"aX c #E9D899",
"sX c #F1D292",
"dX c #F0D294",
"fX c #F2D295",
"gX c #F2D496",
"hX c #F5D696",
"jX c #F2D394",
"kX c #F8D596",
"lX c #F4D896",
"zX c #F3D599",
"xX c #F5DA9A",
"cX c #FADB9B",
"vX c #FAD799",
"bX c #F8E19E",
"nX c #F7DCA0",
"mX c #E4D4A0",
"MX c #FFE7A6",
/* pixels */
"dXOX;X;XyXOX*X@XXX@XOX%X-XdXdXhXeX#XXXW.W.@X_.;XhXzXyX9XXX*X*XyXxXgXgXgX*X@X_.9X*X>X*X@XXX@X@X9XhX>X>X%XyXOX*X9XdXfXdXXXXXXXdX3X",
"%X%X>X;X9X;X;XyX*XXXXXOXdXhXcXhXjX%X#XD.XXA.A.A.;XdX9X*X@X9X*X@X8XyXgX;XXX*X@X*X@X%X@XOX@X*X@X>X<XjX>X>X%XgX9X@X1XdX>XOXA.A.%X1X",
"9XyXyX;X;XyX*X9XdX@XXXOXdXdXcXhXjX5XdX%X%XXXA.XX>X>X%XyXyX;X%XOX@XXX;X;XOX;X;X9XdX;XXXW.@X*X*XyXdXcX>XdXOXvXyX9XdXdXOXXXXXOX%XdX",
"dXzXcX9X@XXXW.@XyXXXA.@XdXvX>XyX;X3XjXhX3X>XOX;XXXOXOX3XdX%X%XOXXX_._.@X*X9X*X*X9X*X@X_.*X*X8X9X9XdX>X>XOXXXA.W.XX%X%X%X%X1X>XhX",
"gX;XdXOX@XW.W.W.XXW.@X9XgXgXXX>XdXyX>XgXdXyX%X;XXXOXOXyXgX;X%XOX;XXX_.XX9X9X;X;X*XOX*X@X8X*X@X@X*X*XdX9X;XXXA.A.C.C.A.XX%XhX>XyX",
"dX;XdX*XXXC.A.W._.C.XX*XzXcXyXyX9XOX*X*XyX;X9X>XXXOXXX;XdXyXyXdXzX9X*X*XyX9X;X9X*X*X*X@X*XXX_.W.XX@XyXdXdXOXW.A.C.Z.W.OX%XyX>XdX",
"9X*X*X*X*XXX@X@X@XXXOX@XyXgXgXdX@X@X@X@X@XW.W.W.XX@XXXOX@X;X*X;XdXgXgX*X;X;X;XXX_.XXW.@X@X_.W.W.XX@XyXdXgXyX8XgXOXXXA.W.XXXX8X*X",
"*X9XOX;X;XOX*X8X*XyXOX@X9XzXdXyXXX_.W.W.C.C.C.A.W.@XXX8X@X@XXX9X*X*XyXyXyX9X9X@XZ.W.C.W.W.A.C.C.C._.yXOX;X;X8XyX;XdX@X%XOXXXgX@X",
"OX_.A.OX%XOX*XXXOX9X*X%X%XdXyXyX@X@XW.W.W.W.W.C.^.@X9X9X*X@XW.W.W.%X9X9X9X;X8X@XZ.W.W.W.A._.Z.S.C.XXdXOX;XyXvXgXOX;X*X@XOXOXyX*X",
"XXXX_.%XOXOX;X*XyX*X;X>X>XyXgXyX@X_.W._.XX*X8X#XXXXX@X*X*X@XW.A.W.@XOX@XXX@X8X8X_.@X*X8X@X_.Z.C.S.C.OXXX;X8XgXyXOX;X*XOX@X@XOX@X",
"%XXXA.>X%X%X;XyX>XXX%X>XdXyXhXdXOXXX@X;X8XyXdX9X@X%X#X;X@XOXXXXX@X;X;X@XXX*X8X*XXX*X*XdX#XXXXXW.C.C.XX@XyX;X*XXX@X*X@XXX@X*X*XyX",
"yXgX>X>XXX;X>XyX;X%XOXOXyXyXdXvX;XXX_.OX;XgX>XOXOX>X;X>X%XOXXXXX@X;X*X;X9X9X*XW.Z.W._.*X*X*X8X@XXXXXXXOXOX;XXX_.XX@X@X@XXX@X@XyX",
"dX9X*X;XOXyXyXzXdXgX%XOX%XyXyXvXyX*X@X*X;X>XOXOXOX;X;XdXhXjXOXXX@X*XOXdXdX9X@X_.A.W.Z._.XX@X9X@X9XdX*X9X;XdX;XOXXXOX#X*XXX*X9XgX",
"XX;XyXOXW.OX;XyXdXgX>X%XOX>X>X9XOXXXW.XX;X9XXXA._.XXXX%XhXhX@XOXXX9X*X*X@XOXXXW.W.A.Z.W.W.W.XXOX>X9X>X%X9X9X9XOX@XOX#X*X@X*X;X*X",
"_._.*X@X@X@XXX@X*X>X9X*X%X9X9XOXXXXXXX*X@X@X@X_.@X_._._.OXdX<X9X*XgX*XXX_.OX@X_.A.A.W.XX@X^.W.^.XX@X*X*XgX;X%XOXXXOX<XdXdXeX9XOX",
"XX_.;XOX;X@XW.W.<X<X9X@X*X8X>XXXW.XXXX8X@X_.@X@X8XW.A.C.C.=X<X9X;X*XA.XX@X*XXXXX_.XXOXXX@X@XXXXXA.A.W.*XyX*X*X;XoX<X>X<XeX<X>XOX",
"@X>X%X%X;XOXXXXX<X1X1X0X*X8X*X#X#X@X*X9X*XXX#XeXeXOXXXC.C.W.@XzX;XOXXX@XOX;XOXOX_.W.#X^.@XOX9X9XXXA.XX*XdX;X*X9X>X>X1XOXXX-X*X%X",
"@XhXdXgXyX;X9X<X1X1X<X*X#X*X%X<X<X@X#X;XjX;X<XeXeX<X#XW.W.W.W.#X_.OX*X*XOX%X;XyX$X*X#X^.@XOX;XyX*XW.W._.8X8XdXdXgXdX>XoXoXdX*X@X",
"XX;X;XgX8X*X8X8XeX1XOX%X;X%XoXXXOX_._._.gX>X<XOXXXOX*XqXW.Z.A._.A.@X*X8X#X%XOX$XOXqX=X<X@XOXXX8X*X;XOXOXXXW.XX@X>XdX%XoX<XjX>X%X",
"yX;XyXvXyX9X@X@X^.^.Z._.XX%X2X+XOXOX*X@XhXvXyX_.G.F.@XzXXXA.C.Z.A.W.@XeXdXyX%XOX_.8X=XdX>XXXA.XX;XdXdXOXW.C.C.A.OXdXdX<XkXhXkXjX",
"dX-X-XjXdXdX@XXX_._.A._._.OX<X<X1XjXeX0XdXcXgX_.A.A._.7XW._.A.@X_.OX=XzXdX>X%XOXOX:X8XzXvXyXOXXX<XkXvXeXXXA.C.A.XX;XyX%XdX>XdXjX",
"hXkX5X-X1XyX;XW.A.)._.].'._.@X<XjXfXeXfXfXcXnXxX3X:X_.W._.;XXX*X@X*X0XfXgXjXjXdXyX:X;XyXhXhXyXOX#XeXvXeX%X@XW._.XX9XOXOXOX3X3XhX",
"dXjXdX%X<X<XeXC.W.XX7X$XE.E._.8X9XyXdX<X<X%XyXxXgXhX*XXXOX>X9XyX3XyX@X<X>X>X1X%XyX*X7X*XdXgXdXOXOX:XOXOX*X9X%X@X@X>XOXXXF.yX3XcX",
"hXdXhX%X%X*X8Xn.C.E._._._.$XW.W.A.XX*XW.XXA.@X8X*X*X@X%X<X<XfXyXdX;X_.*X%XoXOXXXW.W.@X_._.@XXXW.).$X$X:X*X*X*X*X>X9XOX_.A.-X-XhX",
"9XgXgX;XOXOX*XV.n.W.@X*X>X*X@XW.R.W.*XA.Z.A.W.6XW._.@X*X#X^.0X8XgXyX$XiX@XA._.A.C.W.XX'._.].Q.W.W.:X*X*X;X>XdX>X*X#X@XXX^.<X+XjX",
"vXhXcXlXgXiX7XN.N.Z.A.%X<X>X*X@XE.Z._._.XXXXI.{.Q.E.W.@XA.S.W.7XzXyX$X$XW.C.A._._.Q.`.`.7X7X6X_._.XX*X;X<XdXdX<X*X*X%X%XOX#XoX1X",
"vX5XjXiXgXiX].M.b.N.W.*XjXdXOX7X}.7XqXyX;X7X7.Q |.,.).'.).E.E.'.9XXX8X8X@XA._.].[.Q a. XaXpXzXqX8XW.XX#X>X<X<X#XXX@X@X*X>X<XdXhX",
"dXOX+X%XiXgX7XN.n.N.v.W.@X8XpXrX0.aXpXiXiXB.5.d.|.N Q `.8.).V.B.C.C.'.'.'._._.[. XI E w.aXnXpXE.}.'.'.@X9XdXoXXXW.@X*X8X*X@X%X%X",
"7X7X#X@X>XdX9XW.R.n.N.!.7X{.k.# g.xXs.rXrXs.s.'.W.C.9.B.B.9.E.B.V.v.U.Y.Y.B.Z.E.Y.(.<.<.aXxX(.x.l.>.7 `.).OXXXA.^.#XgXyX*X)._._.",
"'.6X7X@XoX>XeX@X!.Q.E.4 '.{.    pXaX7.(.Y.B.Y.I.s.M.p.U.M.Y.Y.s.y.y.} 6 #.P.I.9.j.2.E 6.(.[.a.>.w.a.7.(.].*X;XOX^.XX8X*X_._.F._.",
"pXiXyX;XOXOX@X@X`.}.aXrX$XE.@.l.`.7.6 @.l.f.r.p.U.5.T e.3.J.z.2.P e.X.0 Y f.f.} p.J.W W 2.p.>.U.h.|.[.`.$XOX;X%X;XOX*X7X_._.).$X",
"MXgXjX5X%XOX'.}.k.@.R rX].s.K.K.d.a.X.Y H.%.d 1.t.X.s ' | ` | [ a { ' ` `  . .V Y U ;.e.6.6.@.l.N N y.`.rXpXV.:X:X*X7XpX#XOX*XvX",
"xXcX5X5X;X*X@X6X>.U.|.5.y.r.=.) L J i d %.%.T 1.1.G b b b b t e ; A / 9 8 t s s v c F Z Z -.;.2.p.P.l.>.h.7.>.(.pXnXqXqX@X#X%XdX",
"7X;XcX-XOX_.8X7XN .X..U.>.d.:.( S Z ; s &.%. .T G l h f f o o r > - F . X g e s % ; - A 1 Z J [ } r.#.d...>.7.`.7XzXpXqX#XeX>XOX",
"$X@X*X;XOX7XqXpXd [ % d.5.T u A * > k z n t 0 c L S h x g e r e u ) ; X @ w w b l > * = o 0 $ U U T 3.d.} y.v.E.9X>X*XyXyX:XOXOX",
"OX_.'.$XOXiX8X7X} i.T ;.3.X.j * ~ f 2 k : q 9 l K S > : @ @ o 0 F { i X w f : * * > : : e t 0 i e s B V V #.$.8.c.XX;X3XiX$X;XOX",
"-XOX'.*X3XiXqX{.5 .X` &.&.X.^ u k 2 2 / h = $ % D K % o g + X l p F = e f f h > X X . : r e o O 8 8 r t C +.$.0.s.A.%XjXhXOX<X1X",
"jXjX8X*X3XiXiX[.5 J.3.&.B G l - D k < x : + * p K 3 % 8 : X h z u w O : f : = ; > F / ~ b e 8 o * ; 8 r C +.5.m.n.A.XX*XyXjXjXjX",
"hXhXfX9X-X;X$X4 } E U c ; A 1 S ) < h j j b H Z S A u > z h j j e e e m n j ~ z k ) _ < * ^ o o o 9 = n t ] 5.8.n.C.XX*X@X9X*XyX",
"%X>XeXeXjX3X7XE.h.a.3.i > / D K ( 1 ; e g $ H p l k ; ; * h = e q @ 8 8 q @ u u - _ < k ; a e s c c ^ b e Y %.%.m.C.W.7X#X*XXX;X",
"A.<XeXeXiXrX7XQ.v.P.t.n j l l Z H 1 * b @ @ 8 i z , 2 < k * = x b = . p w > > ; ; h + 8 w i c 9 i l ) H c v B V R #.9.N.*X=XZ._.",
"^.<X<X%X$X7X7X'.C.~.H.n U v 0 c { p < * q 8 q e h > k D & - > = = * - H u * ; = * + @ O w 9 i i 0 l p H G U  .y.j.v.).].@X@XW.Z.",
"OX;X<XoX@X8X8XXXC.I.y 6 r. .] v 9 2 S - q q 8 q w w * , & - A ; X = b l = w ; X * + + @ q o o e r s G v | Y %.j.P.p.0.].*XXX_._.",
"$X;X>X1X9XgX;XXXC.N.,.r.} R V M ; l A F e o w w g w z z h ~ b w q q j ; $ i l u + ! . : > ; j n n o.U B #.y.L.P.,.Q R Z.:X@XOXOX",
"OX$X-XdXdXdXOXOXF.C.N.M.p.f.f.Y | ^ ` s i * > f e q X w e r t r q > l l u F ^ l l A * . D S l j ' t &.] k.P.L.~.I.N.iXyXgXhXXXXX",
"OX3X;X>X*X9XOXXXXXOX^.B.>.z.l.+.T e.3.&.v G ~ w 8 e w q r r y # @ q F % l a a p k 1 ; % ) ( A l g 0 Y N R O.#.R ,.g.'.qXzXhX-XOX",
"*XgX$XOX@XqX8X'.XXXXXX].-.=.6.@.@.H.%.p.1.4.c j b w q : t B y t t e 0 G G i i u S 1 | | Z L { c s &.t.#.n.g.7.I Q $.s.!.XXjX-X-X",
"0X9X).OX*XqX8X*XXXOX-X].:.:.z.M.L.g.5.K.f.} } ' 9 w 8 o 3. .Y 3.3.%.3.M 4.G U l ( ) e.t.E =.{ P 4.J.y.,.!.E.h.R 7.`.!.C.A.@X;XjX",
"*X;X*X;X*X9X;X*XOXXX%XOXrXrXaX6XT.T.t.5 P.8.M X.O O K.j.j.*.@.k.j.b.g.l.d.[ 4.;.L L 1.R E W P T 2.(.M.0.@XW.'.Q.C.#XW.W.S.W.%XfX",
"XX*X;X*XOX>XdXdX>X;X%XOXOX;X9XpX# 3.I 2.Q.~.b.k...T Q.n.n.$.5.5.p.U.N.Y...5 [ 1.i.E J.k.R h./.6.a.7.B.'.8X*XdXfXeX<X#XXXA.W.XX0X",
"W.@X*X<X@X*X%X>X%X>X%X*X@XOXXXpXN ..} |.`.E.~.~.Q.`.~.N.R.,.7.>.W >.M.B.R M j.g.U.M.U.Y.M.(.x.(.(.q.s._.zXyX;XXXXX%X9X9X_.W.XXW.",
"A.XX@XdXdX>X%X%XXX%X@XdX;X@XA.'.5.r.mX7X).Z.C.!.0.8.7X7X8Xv.Y.a.-.>.9.].|.`.~.!.E.Z.N.7 `.a.I x.].:XXX;XgXvXiX@XXXA.*XyX@X_.C.W.",
"XXXX@XhXdX>X@X@X*X9X9XvXxXyX*X'.rXaXnX9X'.Z.v.Q.@X7XqX*XeX>XiXxXaXV.Z.yXpXpX@X*XXXW.W.'.}.W I (.rXyXyX>X3XcXiX_.Z._._.8X'._.W.#X",
"@X*X*XdXdXdXdX9X9X9X;XdXxXgXyX@X].pXgXdXOXXX_._.@X8X@X*XXXeX-XhXyXvXhX>X9XgX;XOXA.XX=XXX`.M.2. XyXhXyX>XgXxXbXxXiXOX_.W._.8X@X*X",
"9X9X@X>X<X<X9X*XyX8X*X*X9XyXyX7X*X*X;X%XoX1XOXOXOXyXOXXXXX1X>XcXgXgX>X%X#X1XgXOXOX>XyXiX_.).'.8XeXeXzX;X7X:XiXxXiXgX;XXXOXyXgXOX",
"dX>XXX*X*X@X@XXXW.W._._.@X*X_._._.*X@X>X#X<X>X$X$X;X%XXXD.>X>XhXdXgXgX%X%X#XdX-XOX+X$X$XOX%XW.^.W.^.*X_.@XE._.:X:XOX*XOX>XOXgXyX",
"zXyX*X8XXXW.W.W.C.Z.W._._.$XW.W.W.*X*X%X#X1XjX<X*XOXXXoXXX%XOXhXdXdXzX;X;XOX>X9X*X;XyXyX>X%XOXW.A.A.#X_.A.A.A.XXW.W.OX*X%X_.OX3X",
"dXyX*X@X_.Z.A._.Z._._._.*X$X@X)._._.OX;X<XeXeXeX*X*X%X#XOX%XOXyXhXkXcXgXiX3XdX*X*X@XXX;X9XeXOX@XA.A.@X_._.XX@X*XA.C.W.XXW.S.W.OX",
"8X*X*X*X@XA._.*X@X*X*X*XvXvXgXiXOXA.XX*X0X0X*X#X@X@X@X*X8X9X>XjXcXjXhXiXlXjX>XW.).E.W.8XzXyX<X>X%XOX8X;X;X;X9XeX@XW.XXXX^.A.W.OX",
"W.A.*X*X*X*X*X*X*X*X*XyXgXcXyXjXyXXXXX#X8XqX#XXXW.@X7X8X8X#X@XOXjXOX:X:XyXhX*X_.Y.M.C.W.*X*X9XhXhXgXjXgXdXdXeXeX*XXXXXXX@X@X_.W.",
"A.C.XXdX8X*XXX@X@XXX*XvXhXcXdXjX8X*XW.W.@X*XOXD.D.OXdXgX8X_._._.;X@X6X@X<XjX9XW.C.v.C.A.OXOXiXiXjXjX3X3X>X1X9X*XOXXX@X%XfXzX9XXX",
"A._.*XyX8X8X@X@XW.A.XX9X>X>XdXyX;X9XXXW.#X*X%XOXF.XX*X8X@XW.W._.'.*X7X6X#X1XdX@XW.W.@X_.XX_.;X;XyXvXlX;XOX>XeX9XOX_.XXOXeXjXdX>X",
";X*X;XgX>XXXXXOXXX^.XXoXXXOX<X>XOX%XXXW.*X8X*X%X;XOXOX:XXX@X_.OXiXyXwX9X#X+XOXOX_.8XqX9XOX_.XXOX>XhXdXOXW.XX%X9XgXiX;X-X3X1XkXkX",
"dX*XyXdX9X@X9X*X@X#X%X>XXX1X%XjX>XOX#X@XqXyX*X;X-XOX4XpX=X<X%XlXMXiXzXqX<XOXA.$X@XzXeXdX*X*XXX<XfXdX9X%XOX<XeXvXgXgXyX-X+X+X5X5X"
};
